<svg width="75" height="75" viewBox="0 0 75 75" fill="none" xmlns="http://www.w3.org/2000/svg">
<g clip-path="url(#clip0_54_381)">
<path d="M37.5 75C58.2107 75 75 58.2107 75 37.5C75 16.7893 58.2107 0 37.5 0C16.7893 0 0 16.7893 0 37.5C0 58.2107 16.7893 75 37.5 75Z" fill="#0D1416"/>
<path d="M60.7846 30.039L65.3346 25.0888H55.2447C50.1935 21.6384 44.0932 19.6289 37.4958 19.6289C30.9068 19.6289 24.8234 21.6428 19.7806 25.0888H9.66553L14.2155 30.039C11.4266 32.5835 9.67827 36.2487 9.67827 40.3185C9.67827 47.9985 15.905 54.2251 23.5851 54.2251C27.2334 54.2251 30.5573 52.818 33.0387 50.5178L37.4959 55.3711L41.9532 50.522C44.4346 52.8223 47.7542 54.2251 51.4026 54.2251C59.0826 54.2251 65.3177 47.9985 65.3177 40.3185C65.322 36.2446 63.5737 32.5794 60.7846 30.039ZM23.5892 49.73C18.3904 49.73 14.1777 45.5172 14.1777 40.3185C14.1777 35.1198 18.3906 30.9069 23.5892 30.9069C28.7877 30.9069 33.0006 35.1198 33.0006 40.3185C33.0006 45.5172 28.7877 49.73 23.5892 49.73ZM37.5 40.0446C37.5 33.8515 32.9965 28.535 27.0521 26.2642C30.2665 24.9202 33.7927 24.1746 37.4958 24.1746C41.1989 24.1746 44.7292 24.9202 47.9438 26.2642C42.0037 28.5393 37.5 33.8517 37.5 40.0446ZM51.4068 49.73C46.2081 49.73 41.9952 45.5172 41.9952 40.3185C41.9952 35.1198 46.2081 30.9069 51.4068 30.9069C56.6056 30.9069 60.8183 35.1198 60.8183 40.3185C60.8183 45.5172 56.6056 49.73 51.4068 49.73ZM51.4068 35.3808C48.6811 35.3808 46.4735 37.5883 46.4735 40.3143C46.4735 43.0399 48.6811 45.2476 51.4068 45.2476C54.1325 45.2476 56.3401 43.04 56.3401 40.3143C56.34 37.5927 54.1325 35.3808 51.4068 35.3808ZM28.5223 40.3185C28.5223 43.0441 26.3148 45.2518 23.589 45.2518C20.8634 45.2518 18.6557 43.0443 18.6557 40.3185C18.6557 37.5927 20.8632 35.3851 23.589 35.3851C26.3148 35.3808 28.5223 37.5927 28.5223 40.3185Z" fill="white"/>
</g>
<defs>
<clipPath id="clip0_54_381">
<rect width="75" height="75" fill="white"/>
</clipPath>
</defs>
</svg>
