<svg width="135" height="40" viewBox="0 0 135 40" fill="none" xmlns="http://www.w3.org/2000/svg">
<path d="M0 28.0899V0H10.0438C11.9957 0 13.7171 0.374532 15.2081 1.1236C16.6991 1.87266 17.8648 2.916 18.7051 4.25361C19.5455 5.56447 19.9657 7.08935 19.9657 8.82825C19.9657 10.5671 19.5184 12.1054 18.6238 13.443C17.7563 14.7806 16.55 15.8373 15.0048 16.6132C13.4596 17.3622 11.711 17.7368 9.7592 17.7368H4.71695V28.0899H0ZM15.7774 28.0899L9.10859 16.6934L12.7683 14.2055L21.1043 28.0899H15.7774ZM4.71695 13.443H10.2472C11.1689 13.443 11.9821 13.2424 12.687 12.8411C13.4189 12.4398 14.0017 11.8914 14.4355 11.1958C14.8963 10.5003 15.1268 9.71107 15.1268 8.82825C15.1268 7.49064 14.6388 6.39379 13.6629 5.53772C12.687 4.68165 11.4264 4.25361 9.88119 4.25361H4.71695V13.443Z" fill="#0D1416"/>
<path d="M32.8852 28.5714C30.9063 28.5714 29.1442 28.13 27.599 27.2472C26.0809 26.3376 24.8745 25.0936 23.9799 23.5152C23.1125 21.9369 22.6787 20.1177 22.6787 18.0578C22.6787 15.9979 23.126 14.1787 24.0206 12.6003C24.9152 11.0219 26.1351 9.79133 27.6803 8.90851C29.2526 7.99893 31.0418 7.54414 33.0479 7.54414C34.8642 7.54414 36.5042 8.01231 37.9681 8.94864C39.432 9.85821 40.5841 11.1825 41.4245 12.9213C42.292 14.6602 42.7257 16.7335 42.7257 19.1413H26.745L27.355 18.5795C27.355 19.8101 27.6261 20.8801 28.1683 21.7897C28.7104 22.6726 29.4288 23.3547 30.3234 23.8363C31.218 24.3178 32.2075 24.5586 33.2918 24.5586C34.5389 24.5586 35.569 24.2911 36.3823 23.756C37.1955 23.1942 37.8326 22.4719 38.2934 21.5891L42.3191 23.2745C41.7498 24.3446 41.0179 25.2809 40.1233 26.0835C39.2558 26.886 38.2121 27.5013 36.9922 27.9294C35.7994 28.3574 34.4304 28.5714 32.8852 28.5714ZM27.6396 16.252L26.989 15.6902H38.4561L37.8461 16.252C37.8461 15.1552 37.6022 14.259 37.1142 13.5634C36.6262 12.8411 36.0027 12.306 35.2437 11.9583C34.5117 11.5837 33.7391 11.3965 32.9259 11.3965C32.1126 11.3965 31.2993 11.5837 30.4861 11.9583C29.6728 12.306 28.9951 12.8411 28.4529 13.5634C27.9107 14.259 27.6396 15.1552 27.6396 16.252Z" fill="#0D1416"/>
<path d="M44.994 28.0899V8.02568H49.2636L49.5483 11.7175V28.0899H44.994ZM58.7789 28.0899V17.817H63.3332V28.0899H58.7789ZM58.7789 17.817C58.7789 16.2119 58.5891 14.9813 58.2096 14.1252C57.8572 13.2424 57.3421 12.6271 56.6644 12.2793C56.0138 11.9315 55.2411 11.7576 54.3466 11.7576C52.8285 11.7309 51.6492 12.2258 50.8088 13.2424C49.9685 14.259 49.5483 15.717 49.5483 17.6164H47.8404C47.8404 15.5029 48.1522 13.6972 48.7757 12.199C49.3992 10.6742 50.2938 9.52381 51.4595 8.74799C52.6251 7.94543 54.0077 7.54414 55.6071 7.54414C57.2337 7.54414 58.6162 7.86517 59.7548 8.50722C60.9205 9.14928 61.8015 10.1525 62.3979 11.5169C63.0214 12.8545 63.3332 14.6067 63.3332 16.7737V17.817H58.7789Z" fill="#0D1416"/>
<path d="M74.8186 28.5714C72.677 28.5714 71.0369 28.0498 69.8984 27.0064C68.7869 25.9363 68.2312 24.4114 68.2312 22.4318V1.76565H72.7448V21.5891C72.7448 22.5254 72.9617 23.2343 73.3954 23.7159C73.8563 24.1974 74.5204 24.4382 75.3879 24.4382C75.659 24.4382 75.9572 24.3847 76.2825 24.2777C76.6078 24.1707 76.9738 23.97 77.3804 23.6758L79.0476 27.0867C78.3428 27.5682 77.638 27.9294 76.9331 28.1701C76.2283 28.4377 75.5235 28.5714 74.8186 28.5714ZM64.8561 11.878V8.02568H78.2344V11.878H64.8561Z" fill="#0D1416"/>
<g clip-path="url(#clip0_9_1272)">
<path d="M105.624 0.392687C111.034 1.50311 115.512 4.69173 118.342 8.95511C121.174 13.2185 122.356 18.5934 121.28 24.0032C120.922 25.6159 120.421 27.1565 119.777 28.5538C126.476 32.6381 132.388 38.084 134.286 39.9106H128.768C119.525 28.9832 108.311 23.7881 102.041 21.7824C106.34 21.7824 111.177 24.0393 114.975 25.9384C115.404 24.9706 115.728 23.9679 115.943 22.9285C116.73 18.9879 115.871 15.0827 113.792 11.9654C111.751 8.84811 108.49 6.51916 104.548 5.73156C100.571 4.94286 96.7018 5.80326 93.5852 7.88108C90.4683 9.92324 88.1397 13.1832 87.351 17.1241C86.527 21.0654 87.4227 24.9706 89.4653 28.0879C91.5427 31.2048 94.8038 33.5334 98.7451 34.3217C102.328 35.0748 108.597 34.0353 104.37 29.9153C97.8843 23.8951 92.2241 21.782 92.2241 21.782C103.08 24.6125 112.86 34.5718 118.485 39.9103H112.717H103.689C96.5231 40.5916 89.1064 37.3677 84.9508 31.0975C82.1199 26.8333 80.9021 21.4592 82.0125 16.0493C83.1233 10.6391 86.3123 6.16066 90.5753 3.33017C94.8394 0.499685 100.214 -0.682441 105.624 0.392687Z" fill="#FF5100"/>
<path d="M99.1028 22.5692C99.1028 22.5692 101.252 23.4657 104.406 25.2567H105.875C103.725 24.218 101.468 23.2866 99.1028 22.5692Z" fill="#0D1416"/>
<path d="M106.555 26.5105C107.881 27.3353 109.35 28.3026 110.819 29.3774H112.896C111.463 28.4104 109.923 27.4426 108.311 26.5105H106.555Z" fill="#0D1416"/>
<path d="M112.538 30.6673C114.043 31.8134 115.583 33.1393 117.088 34.5721H119.596C118.199 33.3544 116.551 31.9932 114.688 30.6673H112.538Z" fill="#0D1416"/>
<path d="M118.379 35.826C119.596 37.1158 120.779 38.4774 121.889 39.9103H124.97L124.684 39.5169C124.684 39.5169 123.323 38.0123 120.993 35.826H118.379Z" fill="#0D1416"/>
</g>
<path d="M40.2883 40C39.6788 40 39.1362 39.8588 38.6607 39.5764C38.1853 39.2879 37.8134 38.895 37.5452 38.3978C37.277 37.8944 37.1429 37.3174 37.1429 36.6667C37.1429 36.016 37.277 35.442 37.5452 34.9447C37.8134 34.4414 38.1822 34.0485 38.6516 33.7661C39.121 33.4776 39.6605 33.3333 40.2701 33.3333C40.6663 33.3333 41.0442 33.407 41.4039 33.5543C41.7636 33.6955 42.0836 33.895 42.364 34.1528C42.6505 34.4045 42.87 34.6992 43.0224 35.0368L42.2177 35.4052C42.1019 35.1535 41.9434 34.9355 41.7422 34.7514C41.5411 34.5672 41.3125 34.423 41.0564 34.3186C40.8065 34.2142 40.5444 34.1621 40.2701 34.1621C39.8433 34.1621 39.4624 34.2695 39.1271 34.4843C38.7918 34.6992 38.5297 34.9939 38.3407 35.3683C38.1517 35.7428 38.0573 36.1756 38.0573 36.6667C38.0573 37.1578 38.1517 37.5936 38.3407 37.9742C38.5358 38.3548 38.801 38.6525 39.1362 38.8674C39.4776 39.0761 39.8647 39.1805 40.2975 39.1805C40.5779 39.1805 40.8431 39.1252 41.093 39.0147C41.3429 38.8981 41.5654 38.7416 41.7605 38.5451C41.9617 38.3425 42.1232 38.1123 42.2451 37.8545L43.0498 38.2136C42.8974 38.5635 42.681 38.8735 42.4006 39.1436C42.1202 39.4137 41.7971 39.6255 41.4313 39.779C41.0717 39.9263 40.6907 40 40.2883 40Z" fill="#0D1416"/>
<path d="M46.7593 39.8895L46.7227 39.0884V37.4862C46.7227 37.1486 46.6831 36.8662 46.6038 36.639C46.5307 36.4119 46.4148 36.24 46.2563 36.1234C46.1039 36.0067 45.8997 35.9484 45.6437 35.9484C45.406 35.9484 45.1987 35.9975 45.0219 36.0958C44.8512 36.194 44.708 36.3474 44.5922 36.5562L43.8241 36.2615C43.9338 36.0528 44.071 35.8686 44.2356 35.709C44.4001 35.5433 44.5983 35.4144 44.8299 35.3223C45.0615 35.2241 45.3328 35.1749 45.6437 35.1749C46.0765 35.1749 46.4362 35.2609 46.7227 35.4328C47.0092 35.6047 47.2225 35.8533 47.3627 36.1786C47.509 36.504 47.5792 36.9061 47.5731 37.3849L47.5639 39.8895H46.7593ZM45.4151 40C44.8726 40 44.4489 39.8772 44.1441 39.6317C43.8454 39.38 43.6961 39.0331 43.6961 38.5912C43.6961 38.1185 43.8515 37.7594 44.1624 37.5138C44.4794 37.2621 44.9183 37.1363 45.4791 37.1363H46.7501V37.8269H45.7169C45.2962 37.8269 45.0006 37.8944 44.8299 38.0295C44.6592 38.1584 44.5739 38.3395 44.5739 38.5727C44.5739 38.7876 44.6531 38.9564 44.8116 39.0792C44.9762 39.1958 45.2018 39.2541 45.4883 39.2541C45.7382 39.2541 45.9546 39.202 46.1375 39.0976C46.3203 38.9871 46.4636 38.8336 46.5672 38.6372C46.6709 38.4408 46.7227 38.2167 46.7227 37.965H47.0244C47.0244 38.5912 46.8903 39.0884 46.6221 39.4567C46.36 39.8189 45.9576 40 45.4151 40Z" fill="#0D1416"/>
<path d="M49.1972 37.4125C49.1972 36.9153 49.2917 36.5101 49.4807 36.197C49.6697 35.884 49.9135 35.6507 50.2122 35.4972C50.5109 35.3438 50.8248 35.267 51.154 35.267V36.0958C50.8797 36.0958 50.6176 36.1387 50.3676 36.2247C50.1238 36.3045 49.9226 36.4395 49.7641 36.6298C49.6117 36.814 49.5355 37.0657 49.5355 37.3849L49.1972 37.4125ZM48.6669 39.8895V35.2854H49.5355V39.8895H48.6669Z" fill="#0D1416"/>
<path d="M54.2974 39.8895V33.4438H56.4554C56.8821 33.4438 57.257 33.5298 57.5801 33.7017C57.9092 33.8674 58.1653 34.1007 58.3481 34.4015C58.5371 34.6961 58.6316 35.0399 58.6316 35.4328C58.6316 35.8195 58.531 36.1633 58.3298 36.4641C58.1348 36.7649 57.8666 37.0012 57.5252 37.1731C57.1838 37.3389 56.7998 37.4217 56.3731 37.4217H55.1935V39.8895H54.2974ZM57.8727 39.8895L56.3548 37.256L57.068 36.7772L58.8876 39.8895H57.8727ZM55.1935 36.593H56.5377C56.7571 36.593 56.9522 36.5439 57.1229 36.4457C57.2996 36.3413 57.4398 36.2032 57.5435 36.0313C57.6532 35.8533 57.7081 35.6538 57.7081 35.4328C57.7081 35.089 57.5892 34.8097 57.3515 34.5948C57.1137 34.38 56.8059 34.2726 56.4279 34.2726H55.1935V36.593Z" fill="#0D1416"/>
<path d="M61.8764 40C61.4314 40 61.0382 39.8987 60.6968 39.6961C60.3554 39.4874 60.0872 39.202 59.8922 38.8398C59.6971 38.4776 59.5996 38.0602 59.5996 37.5875C59.5996 37.1148 59.6971 36.6974 59.8922 36.3352C60.0872 35.973 60.3554 35.6906 60.6968 35.488C61.0443 35.2793 61.4405 35.1749 61.8855 35.1749C62.3061 35.1749 62.6749 35.2824 62.9919 35.4972C63.3089 35.7059 63.5558 36.0067 63.7326 36.3996C63.9154 36.7864 64.0069 37.2437 64.0069 37.7716H60.3128L60.4774 37.6335C60.4774 37.9589 60.5414 38.2412 60.6694 38.4807C60.7974 38.7201 60.9711 38.9042 61.1906 39.0331C61.41 39.1559 61.66 39.2173 61.9404 39.2173C62.2452 39.2173 62.4981 39.1467 62.6993 39.0055C62.9066 38.8582 63.0681 38.674 63.1839 38.453L63.9337 38.8029C63.8118 39.0424 63.6533 39.2541 63.4583 39.4383C63.2632 39.6163 63.0315 39.7544 62.7633 39.8527C62.5012 39.9509 62.2055 40 61.8764 40ZM60.5322 37.2191L60.3585 37.081H63.2479L63.0834 37.2191C63.0834 36.949 63.0285 36.7188 62.9188 36.5285C62.809 36.3321 62.6627 36.1848 62.4799 36.0866C62.297 35.9822 62.0928 35.93 61.8672 35.93C61.6478 35.93 61.4344 35.9822 61.2272 36.0866C61.026 36.1848 60.8584 36.329 60.7242 36.5193C60.5962 36.7096 60.5322 36.9429 60.5322 37.2191Z" fill="#0D1416"/>
<path d="M64.865 39.8895V35.2854H65.6788L65.7337 36.1326V39.8895H64.865ZM68.0288 39.8895V37.5322H68.8975V39.8895H68.0288ZM68.0288 37.5322C68.0288 37.1148 67.98 36.7986 67.8825 36.5838C67.7911 36.3628 67.66 36.2093 67.4893 36.1234C67.3247 36.0374 67.1327 35.9914 66.9133 35.9853C66.5414 35.9853 66.2519 36.1172 66.0446 36.3812C65.8373 36.6452 65.7337 37.0166 65.7337 37.4954H65.3588C65.3588 37.0104 65.4289 36.5961 65.5691 36.2523C65.7154 35.9024 65.9196 35.6354 66.1818 35.4512C66.45 35.267 66.767 35.1749 67.1327 35.1749C67.4924 35.1749 67.8033 35.2486 68.0654 35.3959C68.3336 35.5433 68.5378 35.7735 68.678 36.0866C68.8243 36.3935 68.8975 36.7986 68.8975 37.302V37.5322H68.0288Z" fill="#0D1416"/>
<path d="M71.7554 40C71.2982 40 70.9446 39.8834 70.6947 39.6501C70.4447 39.4107 70.3198 39.07 70.3198 38.628V33.849H71.1884V38.4991C71.1884 38.7262 71.2433 38.9012 71.353 39.0239C71.4688 39.1406 71.6334 39.1989 71.8468 39.1989C71.9077 39.1989 71.9748 39.1866 72.048 39.1621C72.1211 39.1375 72.2095 39.0884 72.3131 39.0147L72.6423 39.6961C72.4838 39.8005 72.3314 39.8772 72.1851 39.9263C72.0449 39.9754 71.9017 40 71.7554 40ZM69.5425 36.0405V35.2854H72.4869V36.0405H69.5425Z" fill="#0D1416"/>
<path d="M76.2713 39.8895L76.2348 39.0884V37.4862C76.2348 37.1486 76.1951 36.8662 76.1159 36.639C76.0427 36.4119 75.9269 36.24 75.7684 36.1234C75.616 36.0067 75.4118 35.9484 75.1558 35.9484C74.918 35.9484 74.7108 35.9975 74.534 36.0958C74.3633 36.194 74.2201 36.3474 74.1042 36.5562L73.3362 36.2615C73.4459 36.0528 73.583 35.8686 73.7476 35.709C73.9122 35.5433 74.1103 35.4144 74.342 35.3223C74.5736 35.2241 74.8449 35.1749 75.1558 35.1749C75.5886 35.1749 75.9483 35.2609 76.2348 35.4328C76.5213 35.6047 76.7346 35.8533 76.8748 36.1786C77.0211 36.504 77.0912 36.9061 77.0851 37.3849L77.076 39.8895H76.2713ZM74.9272 40C74.3847 40 73.961 39.8772 73.6562 39.6317C73.3575 39.38 73.2081 39.0331 73.2081 38.5912C73.2081 38.1185 73.3636 37.7594 73.6745 37.5138C73.9915 37.2621 74.4304 37.1363 74.9912 37.1363H76.2622V37.8269H75.2289C74.8083 37.8269 74.5127 37.8944 74.342 38.0295C74.1713 38.1584 74.086 38.3395 74.086 38.5727C74.086 38.7876 74.1652 38.9564 74.3237 39.0792C74.4883 39.1958 74.7138 39.2541 75.0003 39.2541C75.2503 39.2541 75.4667 39.202 75.6496 39.0976C75.8324 38.9871 75.9757 38.8336 76.0793 38.6372C76.1829 38.4408 76.2348 38.2167 76.2348 37.965H76.5365C76.5365 38.5912 76.4024 39.0884 76.1342 39.4567C75.8721 39.8189 75.4697 40 74.9272 40Z" fill="#0D1416"/>
<path d="M78.179 39.8895V33.4438H79.0476V39.8895H78.179Z" fill="#0D1416"/>
<defs>
<clipPath id="clip0_9_1272">
<rect width="52.6806" height="40" fill="white" transform="translate(81.6052)"/>
</clipPath>
</defs>
</svg>
