<svg width="135" height="40" viewBox="0 0 135 40" fill="none" xmlns="http://www.w3.org/2000/svg">
<path d="M0 28.0899V0H10.0438C11.9957 0 13.7171 0.374532 15.2081 1.1236C16.6991 1.87266 17.8648 2.916 18.7051 4.25361C19.5455 5.56447 19.9657 7.08935 19.9657 8.82825C19.9657 10.5671 19.5184 12.1054 18.6238 13.443C17.7563 14.7806 16.55 15.8373 15.0048 16.6132C13.4596 17.3622 11.711 17.7368 9.7592 17.7368H4.71695V28.0899H0ZM15.7774 28.0899L9.10859 16.6934L12.7683 14.2055L21.1043 28.0899H15.7774ZM4.71695 13.443H10.2472C11.1689 13.443 11.9821 13.2424 12.687 12.8411C13.4189 12.4398 14.0017 11.8914 14.4355 11.1958C14.8963 10.5003 15.1268 9.71107 15.1268 8.82825C15.1268 7.49064 14.6388 6.39379 13.6629 5.53772C12.687 4.68165 11.4264 4.25361 9.88119 4.25361H4.71695V13.443Z" fill="white"/>
<path d="M32.8852 28.5714C30.9063 28.5714 29.1442 28.13 27.599 27.2472C26.0809 26.3376 24.8745 25.0936 23.9799 23.5152C23.1125 21.9369 22.6787 20.1177 22.6787 18.0578C22.6787 15.9979 23.126 14.1787 24.0206 12.6003C24.9152 11.0219 26.1351 9.79133 27.6803 8.90851C29.2526 7.99893 31.0418 7.54414 33.0479 7.54414C34.8642 7.54414 36.5042 8.01231 37.9681 8.94864C39.432 9.85821 40.5841 11.1825 41.4245 12.9213C42.292 14.6602 42.7257 16.7335 42.7257 19.1413H26.745L27.355 18.5795C27.355 19.8101 27.6261 20.8801 28.1683 21.7897C28.7104 22.6726 29.4288 23.3547 30.3234 23.8363C31.218 24.3178 32.2075 24.5586 33.2918 24.5586C34.5389 24.5586 35.569 24.2911 36.3823 23.756C37.1955 23.1942 37.8326 22.4719 38.2934 21.5891L42.3191 23.2745C41.7498 24.3446 41.0179 25.2809 40.1233 26.0835C39.2558 26.886 38.2121 27.5013 36.9922 27.9294C35.7994 28.3574 34.4304 28.5714 32.8852 28.5714ZM27.6396 16.252L26.989 15.6902H38.4561L37.8461 16.252C37.8461 15.1552 37.6022 14.259 37.1142 13.5634C36.6262 12.8411 36.0027 12.306 35.2437 11.9583C34.5117 11.5837 33.7391 11.3965 32.9259 11.3965C32.1126 11.3965 31.2993 11.5837 30.4861 11.9583C29.6728 12.306 28.9951 12.8411 28.4529 13.5634C27.9107 14.259 27.6396 15.1552 27.6396 16.252Z" fill="white"/>
<path d="M44.994 28.0899V8.02568H49.2636L49.5483 11.7175V28.0899H44.994ZM58.7789 28.0899V17.817H63.3332V28.0899H58.7789ZM58.7789 17.817C58.7789 16.2119 58.5891 14.9813 58.2096 14.1252C57.8572 13.2424 57.3421 12.6271 56.6644 12.2793C56.0138 11.9315 55.2411 11.7576 54.3466 11.7576C52.8285 11.7309 51.6492 12.2258 50.8088 13.2424C49.9685 14.259 49.5483 15.717 49.5483 17.6164H47.8404C47.8404 15.5029 48.1522 13.6972 48.7757 12.199C49.3992 10.6742 50.2938 9.52381 51.4595 8.74799C52.6251 7.94543 54.0077 7.54414 55.6071 7.54414C57.2337 7.54414 58.6162 7.86517 59.7548 8.50722C60.9205 9.14928 61.8015 10.1525 62.3979 11.5169C63.0214 12.8545 63.3332 14.6067 63.3332 16.7737V17.817H58.7789Z" fill="white"/>
<path d="M74.8186 28.5714C72.677 28.5714 71.0369 28.0498 69.8984 27.0064C68.7869 25.9363 68.2312 24.4114 68.2312 22.4318V1.76565H72.7448V21.5891C72.7448 22.5254 72.9617 23.2343 73.3954 23.7159C73.8563 24.1974 74.5204 24.4382 75.3879 24.4382C75.659 24.4382 75.9572 24.3847 76.2825 24.2777C76.6078 24.1707 76.9738 23.97 77.3804 23.6758L79.0476 27.0867C78.3428 27.5682 77.638 27.9294 76.9331 28.1701C76.2283 28.4377 75.5235 28.5714 74.8186 28.5714ZM64.8561 11.878V8.02568H78.2344V11.878H64.8561Z" fill="white"/>
<g clip-path="url(#clip0_9_58)">
<path d="M105.624 0.39271C111.034 1.50314 115.512 4.69175 118.342 8.95513C121.174 13.2185 122.356 18.5934 121.28 24.0033C120.922 25.6159 120.421 27.1566 119.777 28.5538C126.476 32.6381 132.388 38.084 134.286 39.9107H128.769C119.525 28.9833 108.311 23.7882 102.041 21.7824C106.34 21.7824 111.177 24.0393 114.975 25.9384C115.404 24.9706 115.728 23.968 115.943 22.9285C116.73 18.9879 115.871 15.0827 113.792 11.9654C111.751 8.84813 108.49 6.51918 104.548 5.73158C100.571 4.94289 96.7018 5.80328 93.5853 7.88111C90.4683 9.92326 88.1398 13.1832 87.3511 17.1241C86.5271 21.0654 87.4228 24.9706 89.4653 28.0879C91.5427 31.2049 94.8038 33.5334 98.7451 34.3218C102.328 35.0748 108.597 34.0353 104.37 29.9154C97.8843 23.8952 92.2241 21.782 92.2241 21.782C103.08 24.6125 112.86 34.5718 118.485 39.9103H112.717H103.689C96.5231 40.5916 89.1064 37.3677 84.9508 31.0975C82.1199 26.8334 80.9021 21.4592 82.0126 16.0494C83.1233 10.6392 86.3123 6.16068 90.5753 3.33019C94.8395 0.499708 100.214 -0.682419 105.624 0.39271Z" fill="#FF5100"/>
<path d="M99.1028 22.5693C99.1028 22.5693 101.252 23.4658 104.406 25.2568H105.875C103.725 24.2181 101.468 23.2867 99.1028 22.5693Z" fill="white"/>
<path d="M106.555 26.5107C107.881 27.3355 109.35 28.3029 110.819 29.3776H112.896C111.463 28.4106 109.923 27.4428 108.311 26.5107H106.555Z" fill="white"/>
<path d="M112.538 30.667C114.043 31.8131 115.583 33.139 117.088 34.5719H119.596C118.199 33.3541 116.551 31.9929 114.688 30.667H112.538Z" fill="white"/>
<path d="M118.379 35.8262C119.596 37.116 120.779 38.4776 121.889 39.9105H124.97L124.684 39.5171C124.684 39.5171 123.323 38.0125 120.993 35.8262H118.379Z" fill="white"/>
</g>
<path d="M40.2883 39.9997C39.6787 39.9997 39.1362 39.8585 38.6607 39.5761C38.1852 39.2876 37.8134 38.8947 37.5452 38.3975C37.277 37.8941 37.1429 37.317 37.1429 36.6663C37.1429 36.0156 37.277 35.4417 37.5452 34.9444C37.8134 34.441 38.1822 34.0482 38.6516 33.7658C39.121 33.4773 39.6605 33.333 40.27 33.333C40.6663 33.333 41.0442 33.4067 41.4039 33.554C41.7635 33.6952 42.0836 33.8947 42.364 34.1525C42.6505 34.4042 42.8699 34.6989 43.0223 35.0365L42.2177 35.4048C42.1019 35.1531 41.9434 34.9352 41.7422 34.7511C41.541 34.5669 41.3124 34.4226 41.0564 34.3183C40.8065 34.2139 40.5444 34.1617 40.27 34.1617C39.8433 34.1617 39.4623 34.2692 39.1271 34.484C38.7918 34.6989 38.5297 34.9935 38.3407 35.368C38.1517 35.7425 38.0572 36.1752 38.0572 36.6663C38.0572 37.1574 38.1517 37.5933 38.3407 37.9739C38.5358 38.3545 38.8009 38.6522 39.1362 38.8671C39.4776 39.0758 39.8647 39.1802 40.2975 39.1802C40.5779 39.1802 40.8431 39.1249 41.093 39.0144C41.3429 38.8978 41.5654 38.7412 41.7605 38.5448C41.9617 38.3422 42.1232 38.112 42.2451 37.8542L43.0498 38.2133C42.8974 38.5632 42.681 38.8732 42.4006 39.1433C42.1201 39.4134 41.7971 39.6252 41.4313 39.7787C41.0717 39.926 40.6907 39.9997 40.2883 39.9997Z" fill="white"/>
<path d="M46.7592 39.8892L46.7227 39.0881V37.4859C46.7227 37.1482 46.683 36.8658 46.6038 36.6387C46.5306 36.4116 46.4148 36.2397 46.2563 36.1231C46.1039 36.0064 45.8997 35.9481 45.6437 35.9481C45.4059 35.9481 45.1987 35.9972 45.0219 36.0954C44.8512 36.1937 44.708 36.3471 44.5921 36.5558L43.8241 36.2612C43.9338 36.0525 44.071 35.8683 44.2355 35.7087C44.4001 35.543 44.5982 35.414 44.8299 35.322C45.0615 35.2237 45.3328 35.1746 45.6437 35.1746C46.0765 35.1746 46.4362 35.2606 46.7227 35.4325C47.0092 35.6043 47.2225 35.853 47.3627 36.1783C47.509 36.5037 47.5791 36.9058 47.573 37.3846L47.5639 39.8892H46.7592ZM45.4151 39.9997C44.8726 39.9997 44.4489 39.8769 44.1441 39.6314C43.8454 39.3797 43.6961 39.0328 43.6961 38.5908C43.6961 38.1182 43.8515 37.759 44.1624 37.5135C44.4794 37.2618 44.9183 37.136 45.4791 37.136H46.7501V37.8266H45.7168C45.2962 37.8266 45.0006 37.8941 44.8299 38.0291C44.6592 38.1581 44.5739 38.3391 44.5739 38.5724C44.5739 38.7873 44.6531 38.9561 44.8116 39.0789C44.9762 39.1955 45.2017 39.2538 45.4882 39.2538C45.7382 39.2538 45.9546 39.2016 46.1375 39.0973C46.3203 38.9868 46.4636 38.8333 46.5672 38.6369C46.6708 38.4404 46.7227 38.2164 46.7227 37.9647H47.0244C47.0244 38.5908 46.8903 39.0881 46.6221 39.4564C46.36 39.8186 45.9576 39.9997 45.4151 39.9997Z" fill="white"/>
<path d="M49.1972 37.4122C49.1972 36.915 49.2917 36.5098 49.4807 36.1967C49.6696 35.8837 49.9135 35.6504 50.2122 35.4969C50.5109 35.3434 50.8248 35.2667 51.154 35.2667V36.0954C50.8797 36.0954 50.6176 36.1384 50.3676 36.2244C50.1238 36.3042 49.9226 36.4392 49.7641 36.6295C49.6117 36.8137 49.5355 37.0654 49.5355 37.3846L49.1972 37.4122ZM48.6669 39.8892V35.2851H49.5355V39.8892H48.6669Z" fill="white"/>
<path d="M54.2974 39.8892V33.4435H56.4553C56.8821 33.4435 57.257 33.5294 57.58 33.7013C57.9092 33.8671 58.1652 34.1003 58.3481 34.4011C58.5371 34.6958 58.6316 35.0396 58.6316 35.4325C58.6316 35.8192 58.531 36.163 58.3298 36.4638C58.1348 36.7646 57.8665 37.0009 57.5252 37.1728C57.1838 37.3385 56.7998 37.4214 56.3731 37.4214H55.1935V39.8892H54.2974ZM57.8726 39.8892L56.3548 37.2557L57.068 36.7768L58.8876 39.8892H57.8726ZM55.1935 36.5927H56.5376C56.7571 36.5927 56.9522 36.5436 57.1228 36.4453C57.2996 36.341 57.4398 36.2029 57.5435 36.031C57.6532 35.853 57.708 35.6534 57.708 35.4325C57.708 35.0887 57.5892 34.8094 57.3514 34.5945C57.1137 34.3797 56.8059 34.2722 56.4279 34.2722H55.1935V36.5927Z" fill="white"/>
<path d="M61.8764 39.9997C61.4314 39.9997 61.0382 39.8984 60.6968 39.6958C60.3554 39.4871 60.0872 39.2016 59.8921 38.8395C59.6971 38.4773 59.5995 38.0598 59.5995 37.5872C59.5995 37.1145 59.6971 36.697 59.8921 36.3348C60.0872 35.9727 60.3554 35.6903 60.6968 35.4877C61.0443 35.279 61.4405 35.1746 61.8855 35.1746C62.3061 35.1746 62.6749 35.2821 62.9919 35.4969C63.3089 35.7056 63.5558 36.0064 63.7326 36.3993C63.9154 36.786 64.0069 37.2434 64.0069 37.7713H60.3128L60.4773 37.6332C60.4773 37.9585 60.5414 38.2409 60.6694 38.4803C60.7974 38.7197 60.9711 38.9039 61.1906 39.0328C61.41 39.1556 61.6599 39.217 61.9404 39.217C62.2452 39.217 62.4981 39.1464 62.6993 39.0052C62.9066 38.8579 63.0681 38.6737 63.1839 38.4527L63.9337 38.8026C63.8118 39.042 63.6533 39.2538 63.4582 39.438C63.2632 39.616 63.0315 39.7541 62.7633 39.8523C62.5012 39.9506 62.2055 39.9997 61.8764 39.9997ZM60.5322 37.2188L60.3585 37.0807H63.2479L63.0833 37.2188C63.0833 36.9487 63.0285 36.7185 62.9188 36.5282C62.809 36.3318 62.6627 36.1845 62.4798 36.0862C62.297 35.9819 62.0928 35.9297 61.8672 35.9297C61.6478 35.9297 61.4344 35.9819 61.2271 36.0862C61.026 36.1845 60.8583 36.3287 60.7242 36.519C60.5962 36.7093 60.5322 36.9426 60.5322 37.2188Z" fill="white"/>
<path d="M64.865 39.8892V35.2851H65.6788L65.7337 36.1323V39.8892H64.865ZM68.0288 39.8892V37.5319H68.8975V39.8892H68.0288ZM68.0288 37.5319C68.0288 37.1145 67.98 36.7983 67.8825 36.5835C67.7911 36.3625 67.66 36.209 67.4893 36.1231C67.3247 36.0371 67.1327 35.9911 66.9132 35.9849C66.5414 35.9849 66.2518 36.1169 66.0446 36.3809C65.8373 36.6449 65.7337 37.0162 65.7337 37.4951H65.3588C65.3588 37.0101 65.4289 36.5957 65.5691 36.252C65.7154 35.9021 65.9196 35.635 66.1817 35.4509C66.45 35.2667 66.7669 35.1746 67.1327 35.1746C67.4924 35.1746 67.8032 35.2483 68.0654 35.3956C68.3336 35.543 68.5378 35.7732 68.678 36.0862C68.8243 36.3932 68.8975 36.7983 68.8975 37.3017V37.5319H68.0288Z" fill="white"/>
<path d="M71.7553 39.9997C71.2981 39.9997 70.9446 39.883 70.6947 39.6498C70.4447 39.4104 70.3198 39.0697 70.3198 38.6277V33.8487H71.1884V38.4988C71.1884 38.7259 71.2433 38.9008 71.353 39.0236C71.4688 39.1403 71.6334 39.1986 71.8468 39.1986C71.9077 39.1986 71.9748 39.1863 72.0479 39.1617C72.1211 39.1372 72.2095 39.0881 72.3131 39.0144L72.6423 39.6958C72.4838 39.8002 72.3314 39.8769 72.1851 39.926C72.0449 39.9751 71.9016 39.9997 71.7553 39.9997ZM69.5425 36.0402V35.2851H72.4868V36.0402H69.5425Z" fill="white"/>
<path d="M76.2713 39.8892L76.2347 39.0881V37.4859C76.2347 37.1482 76.1951 36.8658 76.1159 36.6387C76.0427 36.4116 75.9269 36.2397 75.7684 36.1231C75.616 36.0064 75.4118 35.9481 75.1558 35.9481C74.918 35.9481 74.7108 35.9972 74.534 36.0954C74.3633 36.1937 74.2201 36.3471 74.1042 36.5558L73.3361 36.2612C73.4459 36.0525 73.583 35.8683 73.7476 35.7087C73.9122 35.543 74.1103 35.414 74.342 35.322C74.5736 35.2237 74.8449 35.1746 75.1558 35.1746C75.5886 35.1746 75.9482 35.2606 76.2347 35.4325C76.5213 35.6043 76.7346 35.853 76.8748 36.1783C77.0211 36.5037 77.0912 36.9058 77.0851 37.3846L77.076 39.8892H76.2713ZM74.9272 39.9997C74.3846 39.9997 73.961 39.8769 73.6562 39.6314C73.3575 39.3797 73.2081 39.0328 73.2081 38.5908C73.2081 38.1182 73.3636 37.759 73.6745 37.5135C73.9915 37.2618 74.4304 37.136 74.9912 37.136H76.2622V37.8266H75.2289C74.8083 37.8266 74.5127 37.8941 74.342 38.0291C74.1713 38.1581 74.0859 38.3391 74.0859 38.5724C74.0859 38.7873 74.1652 38.9561 74.3237 39.0789C74.4883 39.1955 74.7138 39.2538 75.0003 39.2538C75.2503 39.2538 75.4667 39.2016 75.6495 39.0973C75.8324 38.9868 75.9757 38.8333 76.0793 38.6369C76.1829 38.4404 76.2347 38.2164 76.2347 37.9647H76.5365C76.5365 38.5908 76.4024 39.0881 76.1342 39.4564C75.872 39.8186 75.4697 39.9997 74.9272 39.9997Z" fill="white"/>
<path d="M78.179 39.8892V33.4435H79.0476V39.8892H78.179Z" fill="white"/>
<defs>
<clipPath id="clip0_9_58">
<rect width="52.6806" height="40" fill="white" transform="translate(81.6052)"/>
</clipPath>
</defs>
</svg>
