<svg width="75" height="75" viewBox="0 0 75 75" fill="none" xmlns="http://www.w3.org/2000/svg">
<path d="M37.5 75C58.2107 75 75 58.2107 75 37.5C75 16.7893 58.2107 0 37.5 0C16.7893 0 0 16.7893 0 37.5C0 58.2107 16.7893 75 37.5 75Z" fill="#00E458"/>
<path d="M60.7841 30.039L65.3341 25.0888H55.2442C50.193 21.6384 44.0927 19.6289 37.4953 19.6289C30.9063 19.6289 24.8229 21.6428 19.7801 25.0888H9.66504L14.215 30.039C11.4261 32.5835 9.67778 36.2487 9.67778 40.3185C9.67778 47.9985 15.9045 54.2251 23.5846 54.2251C27.2329 54.2251 30.5568 52.818 33.0382 50.5178L37.4955 55.3711L41.9527 50.522C44.4341 52.8223 47.7538 54.2251 51.4021 54.2251C59.0821 54.2251 65.3172 47.9985 65.3172 40.3185C65.3215 36.2446 63.5732 32.5794 60.7841 30.039ZM23.5887 49.73C18.3899 49.73 14.1772 45.5172 14.1772 40.3185C14.1772 35.1198 18.3901 30.9069 23.5887 30.9069C28.7873 30.9069 33.0001 35.1198 33.0001 40.3185C33.0001 45.5172 28.7873 49.73 23.5887 49.73ZM37.4996 40.0446C37.4996 33.8515 32.996 28.535 27.0516 26.2642C30.266 24.9202 33.7922 24.1746 37.4953 24.1746C41.1984 24.1746 44.7287 24.9202 47.9433 26.2642C42.0032 28.5393 37.4996 33.8517 37.4996 40.0446ZM51.4063 49.73C46.2076 49.73 41.9947 45.5172 41.9947 40.3185C41.9947 35.1198 46.2076 30.9069 51.4063 30.9069C56.6051 30.9069 60.8178 35.1198 60.8178 40.3185C60.8178 45.5172 56.6051 49.73 51.4063 49.73ZM51.4063 35.3808C48.6806 35.3808 46.473 37.5883 46.473 40.3143C46.473 43.0399 48.6806 45.2476 51.4063 45.2476C54.132 45.2476 56.3396 43.04 56.3396 40.3143C56.3395 37.5927 54.132 35.3808 51.4063 35.3808ZM28.5218 40.3185C28.5218 43.0441 26.3143 45.2518 23.5885 45.2518C20.8629 45.2518 18.6552 43.0443 18.6552 40.3185C18.6552 37.5927 20.8627 35.3851 23.5885 35.3851C26.3143 35.3808 28.5218 37.5927 28.5218 40.3185Z" fill="#0D1416"/>
</svg>
