<svg width="75" height="75" viewBox="0 0 75 75" fill="none" xmlns="http://www.w3.org/2000/svg">
<g clip-path="url(#clip0_82_339)">
<path d="M37.5 0C30.0832 0 22.833 2.19934 16.6661 6.31989C10.4993 10.4404 5.69282 16.2971 2.85453 23.1494C0.0162483 30.0016 -0.726377 37.5416 0.720569 44.8159C2.16751 52.0902 5.73904 58.772 10.9835 64.0165C16.228 69.261 22.9098 72.8325 30.1841 74.2794C37.4584 75.7264 44.9984 74.9838 51.8506 72.1455C58.7029 69.3072 64.5596 64.5007 68.6801 58.3339C72.8007 52.167 75 44.9168 75 37.5C75 27.5544 71.0491 18.0161 64.0165 10.9835C56.9839 3.95088 47.4456 0 37.5 0ZM20.0284 44.2415C19.8919 42.7939 19.9019 41.3362 20.0583 39.8906C20.2287 38.1435 20.5611 35.6932 22.2699 35.7955C22.696 35.7955 28.4148 38.2031 32.5909 39.9247C34.1591 40.5597 34.2955 43.2571 32.4546 43.8196C32.3651 43.8494 22.4531 47.1435 21.8523 47.1435C20.4546 47.0625 20.1477 45.6392 20.0284 44.2415ZM37.4744 59.8594C37.3711 60.135 37.1948 60.3774 36.9644 60.5605C36.7339 60.7437 36.458 60.8607 36.1662 60.8992C35.2429 61.0582 33.6804 60.7273 31.4787 59.9063C29.4631 59.152 26.2841 57.9034 26.9617 55.9517C27.2173 55.3125 31.6705 50.1094 34.0398 47.2457C35.1392 45.8352 37.6875 46.7344 37.6108 48.5582C37.6236 49.0057 37.6406 59.3821 37.4659 59.8594H37.4744ZM33.4262 34.5597L23.6889 18.9332C23.6194 18.6451 23.6277 18.3437 23.713 18.0599C23.7984 17.7761 23.9578 17.5201 24.1747 17.3182C25.6023 15.767 33.277 13.6364 35.3011 14.1477C35.6053 14.1972 35.8883 14.3345 36.1154 14.5427C36.3425 14.7509 36.5038 15.0209 36.5796 15.3196C36.6989 16.0909 37.6321 30.8864 37.76 33.2173C37.9262 36.7841 35.4162 37.7386 33.4262 34.5597ZM41.2074 37.1719C41.544 36.831 47.2415 28.581 47.8722 28.1548C48.1179 27.9894 48.405 27.8962 48.701 27.8856C48.997 27.8751 49.29 27.9477 49.5469 28.0952C51.2514 28.9134 54.5966 33.9631 54.8054 35.9659C54.8485 36.2751 54.8076 36.5903 54.6868 36.8782C54.5661 37.1661 54.3701 37.4162 54.1193 37.6023C53.6037 37.9432 43.9688 40.223 43.304 40.4489L43.3296 40.3935C41.6847 40.8281 40.0994 38.6719 41.2074 37.1719ZM55.0483 49.7557C54.8012 51.6733 50.9744 56.5739 49.206 57.2898C48.9465 57.4169 48.6559 57.4668 48.3688 57.4336C48.0817 57.4003 47.8103 57.2854 47.5867 57.1023C47.1264 56.7784 41.9276 48.0724 41.6208 47.5909C40.6193 46.0866 42.2429 43.8878 43.9645 44.5014C43.9645 44.5014 54.0852 47.8253 54.4688 48.1662C54.7052 48.3497 54.8851 48.5962 54.9876 48.8774C55.0901 49.1586 55.1112 49.4631 55.0483 49.7557Z" fill="#C12718"/>
</g>
<defs>
<clipPath id="clip0_82_339">
<rect width="75" height="75" fill="white"/>
</clipPath>
</defs>
</svg>
