<svg width="87" height="85" viewBox="0 0 87 85" fill="none" xmlns="http://www.w3.org/2000/svg">
<path d="M2.93945 61.4199V51.023H4.19168V60.303H8.99859V61.4199H2.93945Z" fill="#1B1A1D"/>
<path d="M17.7238 51.023H18.976V57.9069C18.976 58.6176 18.8094 59.2522 18.4761 59.8106C18.1462 60.3656 17.68 60.8039 17.0774 61.1254C16.4749 61.4436 15.768 61.6026 14.9567 61.6026C14.1455 61.6026 13.4386 61.4436 12.836 61.1254C12.2335 60.8039 11.7656 60.3656 11.4323 59.8106C11.1025 59.2522 10.9375 58.6176 10.9375 57.9069V51.023H12.1897V57.8053C12.1897 58.313 12.3008 58.7648 12.523 59.1608C12.7452 59.5534 13.0616 59.863 13.4723 60.0898C13.8863 60.3132 14.3811 60.4248 14.9567 60.4248C15.5324 60.4248 16.0272 60.3132 16.4412 60.0898C16.8553 59.863 17.1717 59.5534 17.3905 59.1608C17.6127 58.7648 17.7238 58.313 17.7238 57.8053V51.023Z" fill="#1B1A1D"/>
<path d="M22.0825 51.023L24.7486 55.3483H24.8294L27.4954 51.023H28.9698L25.718 56.2214L28.9698 61.4199H27.4954L24.8294 57.1758H24.7486L22.0825 61.4199H20.6082L23.9407 56.2214L20.6082 51.023H22.0825Z" fill="#1B1A1D"/>
<path d="M37.3857 51.023H38.6379V57.9069C38.6379 58.6176 38.4713 59.2522 38.138 59.8106C37.8081 60.3656 37.3419 60.8039 36.7394 61.1254C36.1368 61.4436 35.4299 61.6026 34.6187 61.6026C33.8074 61.6026 33.1005 61.4436 32.498 61.1254C31.8954 60.8039 31.4275 60.3656 31.0943 59.8106C30.7644 59.2522 30.5994 58.6176 30.5994 57.9069V51.023H31.8516V57.8053C31.8516 58.313 31.9627 58.7648 32.1849 59.1608C32.4071 59.5534 32.7235 59.863 33.1342 60.0898C33.5482 60.3132 34.043 60.4248 34.6187 60.4248C35.1943 60.4248 35.6891 60.3132 36.1031 60.0898C36.5172 59.863 36.8336 59.5534 37.0524 59.1608C37.2746 58.7648 37.3857 58.313 37.3857 57.8053V51.023Z" fill="#1B1A1D"/>
<path d="M41.1385 61.4199V51.023H44.6326C45.4405 51.023 46.1037 51.1618 46.6221 51.4393C47.1405 51.7134 47.5242 52.0908 47.7733 52.5714C48.0224 53.0519 48.1469 53.5985 48.1469 54.2111C48.1469 54.8237 48.0224 55.3669 47.7733 55.8407C47.5242 56.3145 47.1421 56.6868 46.6271 56.9575C46.1121 57.2249 45.454 57.3586 44.6528 57.3586H41.8252V56.2214H44.6124C45.1645 56.2214 45.6088 56.1402 45.9455 55.9778C46.2854 55.8153 46.5312 55.5852 46.6827 55.2873C46.8375 54.9861 46.9149 54.6274 46.9149 54.2111C46.9149 53.7948 46.8375 53.431 46.6827 53.1196C46.5278 52.8083 46.2804 52.568 45.9404 52.3988C45.6004 52.2262 45.151 52.1399 44.5923 52.1399H42.3908V61.4199H41.1385ZM46.0061 56.7494L48.5509 61.4199H47.0967L44.5923 56.7494H46.0061Z" fill="#1B1A1D"/>
<path d="M48.9978 51.023H50.4317L53.2997 55.8762H53.4209L56.2889 51.023H57.7229L53.9864 57.1352V61.4199H52.7342V57.1352L48.9978 51.023Z" fill="#1B1A1D"/>
<path d="M67.1777 54.272H65.9255C65.8514 53.9099 65.7218 53.5918 65.5367 53.3176C65.3549 53.0435 65.1327 52.8133 64.8702 52.6272C64.611 52.4377 64.3232 52.2955 64.0067 52.2008C63.6903 52.106 63.3604 52.0586 63.0171 52.0586C62.391 52.0586 61.8238 52.2177 61.3155 52.5358C60.8106 52.854 60.4083 53.3227 60.1087 53.942C59.8125 54.5614 59.6644 55.3212 59.6644 56.2214C59.6644 57.1217 59.8125 57.8815 60.1087 58.5008C60.4083 59.1202 60.8106 59.5889 61.3155 59.907C61.8238 60.2252 62.391 60.3842 63.0171 60.3842C63.3604 60.3842 63.6903 60.3369 64.0067 60.2421C64.3232 60.1473 64.611 60.0069 64.8702 59.8207C65.1327 59.6312 65.3549 59.3994 65.5367 59.1252C65.7218 58.8477 65.8514 58.5296 65.9255 58.1708H67.1777C67.0834 58.7022 66.9118 59.1777 66.6627 59.5974C66.4136 60.017 66.1039 60.3741 65.7336 60.6685C65.3633 60.9596 64.9476 61.1813 64.4864 61.3336C64.0286 61.4859 63.5388 61.562 63.0171 61.562C62.1351 61.562 61.3508 61.3454 60.6641 60.9122C59.9774 60.479 59.4371 59.863 59.0433 59.0643C58.6495 58.2656 58.4525 57.318 58.4525 56.2214C58.4525 55.1249 58.6495 54.1773 59.0433 53.3785C59.4371 52.5798 59.9774 51.9639 60.6641 51.5307C61.3508 51.0975 62.1351 50.8809 63.0171 50.8809C63.5388 50.8809 64.0286 50.957 64.4864 51.1093C64.9476 51.2616 65.3633 51.485 65.7336 51.7794C66.1039 52.0705 66.4136 52.4258 66.6627 52.8455C66.9118 53.2618 67.0834 53.7373 67.1777 54.272Z" fill="#AB1528"/>
<path d="M69.6253 61.4199H68.3125L72.1096 51.023H73.4022L77.1993 61.4199H75.8864L72.7963 52.6678H72.7155L69.6253 61.4199ZM70.1101 57.3586H75.4017V58.4754H70.1101V57.3586Z" fill="#AB1528"/>
<path d="M78.81 61.4199V51.023H82.3041C83.112 51.023 83.7751 51.1618 84.2935 51.4393C84.8119 51.7134 85.1956 52.0908 85.4447 52.5714C85.6938 53.0519 85.8184 53.5985 85.8184 54.2111C85.8184 54.8237 85.6938 55.3669 85.4447 55.8407C85.1956 56.3145 84.8136 56.6868 84.2985 56.9575C83.7835 57.2249 83.1254 57.3586 82.3243 57.3586H79.4967V56.2214H82.2839C82.8359 56.2214 83.2803 56.1402 83.6169 55.9778C83.9569 55.8153 84.2026 55.5852 84.3541 55.2873C84.5089 54.9861 84.5864 54.6274 84.5864 54.2111C84.5864 53.7948 84.5089 53.431 84.3541 53.1196C84.1992 52.8083 83.9518 52.568 83.6118 52.3988C83.2719 52.2262 82.8225 52.1399 82.2637 52.1399H80.0622V61.4199H78.81ZM83.6775 56.7494L86.2223 61.4199H84.7681L82.2637 56.7494H83.6775Z" fill="#AB1528"/>
<path d="M52.261 66.8506C47.701 72.3759 42.1561 77.2705 35.6907 81.4208C29.2249 77.2705 23.68 72.3759 19.12 66.8506H10.2061C12.1319 67.3875 14.8581 68.0275 16.4418 68.3701C21.5175 74.6274 27.9038 80.2541 35.6903 85.0002C43.4767 80.2541 49.8631 74.627 54.9388 68.3701C56.5225 68.0275 59.2487 67.3875 61.1745 66.8506H52.261Z" fill="#AB1528"/>
<path d="M71.3816 47.901C69.4705 47.1963 68.468 46.9087 66.8542 46.3815C69.2526 38.9675 70.4051 31.1818 70.4051 23.283C58.417 17.8532 44.7578 9.28841 35.6908 0C26.6234 9.28841 12.9646 17.8528 0.976492 23.283C0.976492 31.1814 2.12947 38.9675 4.52742 46.3815C2.91359 46.9087 1.91159 47.1963 0 47.901H8.23643C5.64945 40.8634 4.22005 33.2593 4.02266 25.2201C16.0438 19.5535 27.5685 11.9129 35.6904 4.24834C43.8127 11.9129 55.337 19.554 67.3581 25.2201C67.1607 33.2593 65.7313 40.8634 63.1444 47.901H71.3816Z" fill="#AB1528"/>
<path d="M65.817 26.168C54.5084 20.7344 43.6516 13.5773 35.6907 6.31592C27.7299 13.5773 16.873 20.7344 5.56445 26.168C5.85217 33.8553 7.28785 41.1297 9.84723 47.9012C8.25431 40.6117 7.05784 33.9856 7.11848 27.1014C17.6881 21.9251 27.9808 15.1692 35.6907 8.35348C43.4006 15.1692 53.6938 21.9255 64.2629 27.1014C64.3236 33.986 63.1275 40.6121 61.5342 47.9012C64.094 41.1297 65.5292 33.8553 65.817 26.168Z" fill="#1B1A1D"/>
<path d="M35.6907 77.7851C31.4619 75.4507 23.785 68.9407 21.0947 66.8506C25.2123 71.6489 30.0919 75.917 35.6907 79.6107C41.29 75.917 46.1696 71.6489 50.2871 66.8506C47.5964 68.9407 39.9196 75.4507 35.6907 77.7851Z" fill="#1B1A1D"/>
<path d="M60.5473 39.0474C60.564 41.3406 52.0348 40.876 50.0107 40.9054C50.5736 41.2312 58.2137 42.8933 60.4005 41.8195C61.6806 41.1909 61.006 39.5191 60.5473 39.0474Z" fill="#1B1A1D"/>
<path d="M60.8699 34.5942C60.4885 36.2458 58.4648 35.8035 56.0886 35.8035C55.8247 35.4495 55.5407 35.1741 55.5407 35.1741H53.8922L53.8303 35.2779C53.6396 35.5991 53.4376 35.9128 53.2285 36.2185C55.0824 36.5704 58.7061 36.9417 60.7783 36.6982L59.9603 39.5191C59.9603 39.5191 60.8945 37.1914 61.2776 36.4497C61.4361 36.1436 61.4148 35.5722 60.8699 34.5942Z" fill="#1B1A1D"/>
<path d="M61.7465 32.1333C61.3722 31.1734 56.5759 27.1348 42.1664 27.15C36.4738 27.6289 31.6307 27.9749 27.4922 28.0493C26.8933 27.2173 25.7654 25.9571 25.1452 25.4093C26.9866 25.0477 34.5188 23.1312 42.1664 26.7922C38.4289 24.4019 33.7986 22.7818 23.7175 23.7447C17.1133 24.3758 14.6166 27.2938 11.0941 27.6116C10.9653 29.7842 9.86045 30.4981 9.86045 32.0736C9.5192 33.0121 9.40797 34.0022 9.46735 34.9256C9.60452 37.0523 10.6559 38.732 11.895 38.5844C13.0275 38.4495 14.7793 38.1799 15.9783 37.7889C16.0193 37.746 16.0845 37.6607 16.1539 37.5648C16.018 37.4366 15.8035 37.2053 15.7696 37.1036C16.7277 37.7628 18.3591 37.6417 19.8943 37.5324C21.4228 37.931 31.9585 40.7527 32.741 40.9626C33.4394 43.5354 35.7763 45.6646 38.0136 45.6637C40.2071 45.8878 43.1094 44.3948 44.6797 43.704C44.4736 43.5976 44.1746 43.3991 44.0662 43.2633C45.578 43.7956 46.7649 44.0504 47.7757 44.0559C48.8337 44.0618 50.2263 43.4601 52.1375 42.2929C51.2534 42.2399 48.0738 41.9817 48.8868 41.0445C50.1418 39.5982 52.217 37.5997 53.6581 35.1732C53.6581 35.1732 52.7552 35.1173 52.0815 35.2119C51.6938 35.2661 50.8302 35.851 50.4091 35.8594C48.7405 35.8918 45.2121 33.2277 43.6363 32.4179C43.6363 32.4179 56.4604 34.5938 61.5921 33.9064C62.117 33.8366 61.9154 32.5672 61.7465 32.1333ZM24.1884 25.482C25.0796 26.2426 25.8859 27.0991 26.6089 28.0578C21.5818 28.1259 17.6691 27.8429 15.9833 27.1651C17.6557 25.321 22.3466 24.7597 24.1884 25.482ZM11.9142 38.1783C10.906 38.2438 9.99051 36.776 9.86965 34.8999C9.74879 33.0238 10.4681 31.4496 11.4768 31.3836C11.918 31.355 12.3412 31.6195 12.6879 32.0833C12.4336 31.8461 12.1493 31.7196 11.8557 31.7385C10.9561 31.7969 10.3142 33.2013 10.4221 34.8751C10.53 36.549 11.3467 37.8583 12.2463 37.7994C12.5194 37.7818 12.7686 37.6396 12.9806 37.4038C12.7009 37.8646 12.3324 38.1513 11.9142 38.1783ZM14.037 34.5131C13.3804 32.6408 12.9802 30.9795 11.4504 30.9795C11.1493 30.9795 10.8675 31.091 10.6149 31.2919C11.1167 30.6528 11.7612 30.4615 12.3667 30.7071C14.0324 31.3819 14.0194 35.2464 15.4773 36.8559C14.8124 36.3858 14.4046 35.5609 14.037 34.5131ZM16.0293 36.3169C15.4961 35.7026 15.0691 34.3857 14.6166 33.0125C15.4417 34.8141 15.793 35.4688 16.6248 36.2584C17.1413 36.7487 18.4298 36.9038 19.4673 36.9169C17.6741 37.0783 16.6683 37.0531 16.0293 36.3169ZM32.4612 38.1871C30.3769 37.7914 22.3199 36.1798 18.045 34.8146C21.5203 35.6176 28.8425 37.0043 32.5281 37.4458C32.4942 37.6821 32.4712 37.9289 32.4612 38.1871ZM38.9571 44.9595C38.7622 44.9901 38.564 45.0057 38.3679 45.0057C36.0849 45.0057 34.0416 42.9412 33.6142 40.204C33.3842 38.7316 33.6439 37.2755 34.3456 36.1037C35.0331 34.955 36.0653 34.2192 37.2508 34.0321C37.4457 34.0014 37.644 33.9858 37.8401 33.9858C39.1424 33.9858 40.3669 34.6577 41.2576 35.7429C40.5295 35.024 39.6166 34.5942 38.6552 34.5942C38.4845 34.5942 38.3118 34.6081 38.142 34.6355C37.1095 34.802 36.2112 35.4562 35.6123 36.4779C35.0014 37.5207 34.7751 38.8157 34.9754 40.1258C35.3476 42.5607 37.1271 44.3973 39.1143 44.3973C39.285 44.3973 39.4577 44.3834 39.6275 44.3561C40.3991 44.2316 41.0958 43.8347 41.6486 43.2158C40.9695 44.1761 40.026 44.7908 38.9571 44.9595ZM44.6396 40.963C44.7588 37.9533 42.8957 33.9261 39.4071 32.8161C37.2416 32.127 35.4208 32.9544 34.1541 34.0308C35.4129 32.6597 37.3144 31.5737 39.6011 32.2056C43.8848 33.3892 44.9432 37.9092 44.6396 40.963ZM28.6506 29.1005C31.4851 28.9466 42.7481 28.2491 47.342 32.1043C43.147 29.4331 31.6298 29.0004 28.6506 29.1005Z" fill="#1B1A1D"/>
<path d="M28.1338 16.3633L28.9668 18.0598L30.8291 18.3319L29.4812 19.6525L29.7995 21.5177L28.1338 20.6373L26.4681 21.5177L26.7863 19.6525L25.4385 18.3319L27.3011 18.0598L28.1338 16.3633Z" fill="#AB1528"/>
<path d="M43.2485 16.3633L42.4155 18.0598L40.5532 18.3319L41.9007 19.6525L41.5824 21.5177L43.2485 20.6373L44.9142 21.5177L44.596 19.6525L45.9438 18.3319L44.0812 18.0598L43.2485 16.3633Z" fill="#AB1528"/>
<path d="M35.6912 11.7051L36.8016 13.9676L39.2848 14.3304L37.4878 16.0913L37.9123 18.5779L35.6912 17.4036L33.4702 18.5779L33.8942 16.0913L32.0977 14.3304L34.5805 13.9676L35.6912 11.7051Z" fill="#AB1528"/>
<path d="M35.6912 67.3862L36.8016 69.6483L39.2848 70.0112L37.4878 71.7721L37.9123 74.2587L35.6912 73.0847L33.4702 74.2587L33.8942 71.7721L32.0977 70.0112L34.5805 69.6483L35.6912 67.3862Z" fill="#AB1528"/>
</svg>
