<svg width="101" height="85" viewBox="0 0 101 85" fill="none" xmlns="http://www.w3.org/2000/svg">
<g clip-path="url(#clip0_54_550)">
<path fill-rule="evenodd" clip-rule="evenodd" d="M78.2807 56.9741C73.3251 68.1918 61.6545 76.0731 50.873 81.2032C40.0906 76.074 28.421 68.1918 23.4644 56.9741H0.745117V59.7954H20.8593C26.6005 71.353 38.7219 79.4797 50.2359 84.8264L50.3601 84.884C50.6912 85.0377 51.0521 85.0377 51.3841 84.884L51.5083 84.8264C63.0214 79.4788 75.1437 71.3521 80.885 59.7954H100.999V56.9741H78.2807Z" fill="#0D1416"/>
<path fill-rule="evenodd" clip-rule="evenodd" d="M83.4352 16.9646C78.844 14.9615 74.2915 12.8666 69.811 10.6262C63.5829 7.51178 57.4799 4.11239 51.6622 0.283246L51.538 0.201431C51.1304 -0.0664925 50.6147 -0.0664925 50.2071 0.201431L50.0829 0.283246C44.2652 4.11239 38.1613 7.51268 31.9332 10.6271C27.4527 12.8675 22.9011 14.9624 18.3099 16.9646C17.8833 17.1507 17.6107 17.5472 17.6107 18.0138C17.6107 19.9091 17.599 21.8034 17.5801 23.6987C18.6698 23.4119 19.8316 23.1466 21.0356 22.9084H21.14C21.1499 21.8025 21.1571 20.6967 21.1607 19.5908C31.3924 15.0775 41.4665 10.0723 50.873 4.0063C60.2795 10.0723 70.3536 15.0775 80.5844 19.5908C80.5952 23.099 80.642 26.6063 80.6951 30.1135C81.945 30.3194 83.1338 30.573 84.2595 30.8741C84.1947 26.5874 84.1344 22.3006 84.1344 18.0138C84.1344 17.5472 83.8617 17.1507 83.4352 16.9646Z" fill="#0D1416"/>
<path fill-rule="evenodd" clip-rule="evenodd" d="M50.8731 68.5928L49.7923 70.9897L47.1772 71.2756L49.1255 73.0423L48.5883 75.6163L50.8731 74.3109L53.157 75.6163L52.6206 73.0423L54.5689 71.2756L51.9529 70.9897L50.8731 68.5928Z" fill="#ED1C24"/>
<path fill-rule="evenodd" clip-rule="evenodd" d="M60.0435 63.7378L58.9627 66.1347L56.3477 66.4206L58.295 68.1873L57.7587 70.7613L60.0435 69.4559L62.3274 70.7613L61.791 68.1873L63.7393 66.4206L61.1233 66.1347L60.0435 63.7378Z" fill="#ED1C24"/>
<path fill-rule="evenodd" clip-rule="evenodd" d="M40.8877 63.7378L39.8069 66.1347L37.1919 66.4206L39.1401 68.1873L38.6029 70.7613L40.8877 69.4559L43.1716 70.7613L42.6353 68.1873L44.5835 66.4206L41.9676 66.1347L40.8877 63.7378Z" fill="#ED1C24"/>
<path fill-rule="evenodd" clip-rule="evenodd" d="M10.3522 43.7337C10.192 44.3559 10.2685 44.4943 9.38299 44.4692L1.55762 44.479C0.799019 41.4905 2.4971 33.5041 6.2361 32.3164C4.32925 33.7477 3.53376 36.3424 3.85232 40.1024C4.80169 41.0922 5.56209 39.2105 6.84532 37.8367C13.7033 30.4958 31.4355 31.8813 31.6596 43.7193C30.7291 37.7935 23.6632 35.001 16.7287 37.1363C13.4622 38.1424 10.8444 40.3784 10.3522 43.7337Z" fill="#ED1C24"/>
<path fill-rule="evenodd" clip-rule="evenodd" d="M4.33113 30.9954C2.91112 31.1536 3.0209 31.9583 3.33406 33.2008C1.26343 31.123 0.15208 29.1451 0 27.2669C1.55859 27.5564 4.49041 27.8198 8.79454 28.059C9.82671 28.0923 10.8247 28.1111 11.7902 28.1156C35.5138 20.8152 47.6667 22.9316 67.6162 30.9054C51.4651 26.0415 32.9924 23.6688 16.2006 29.6656C17.6638 30.0909 21.1913 31.0556 26.7841 32.5588L16.5605 31.5123C14.9371 31.2965 13.3713 31.1383 11.8883 31.034L11.6436 31.0088C11.5545 31.0052 11.4663 31.0016 11.379 30.9998C8.68476 30.829 6.27757 30.7787 4.33113 30.9954Z" fill="#ED1C24"/>
<path fill-rule="evenodd" clip-rule="evenodd" d="M86.9872 43.9448C86.9512 44.4806 87.4533 44.6497 88.059 44.6236H96.6933C96.8661 44.0176 96.7545 44.068 95.5577 43.2255C94.6542 42.589 94.216 41.6638 93.7471 40.6884C91.7701 36.5733 87.2851 34.1656 82.4113 33.2306C75.2105 31.8496 68.8825 31.4711 61.5602 31.6671C61.3091 31.5115 59.2952 30.1566 58.2945 29.4859C57.4144 28.8961 56.6666 28.8889 55.6029 28.719C53.5764 28.3954 53.5278 31.2391 55.1503 31.3191C55.5534 31.3389 55.9404 31.3578 56.313 31.3758C56.6702 31.3938 57.0149 31.4099 57.346 31.4261C57.5728 31.4369 57.7906 31.3551 57.9615 31.2157C58.2801 31.418 58.5474 31.5907 58.7633 31.7336C42.6815 32.0654 30.8697 31.4279 23.3296 29.8204C30.5385 32.363 42.8237 33.7664 60.0727 34.0316C64.4479 34.0505 67.4472 34.189 69.0697 34.4479C69.9452 34.5828 69.6141 34.7922 69.1821 35.1851C65.8265 38.0712 64.6539 41.0705 65.6645 44.1848C67.4796 32.3117 86.683 33.0975 86.9872 43.9448Z" fill="#ED1C24"/>
<path fill-rule="evenodd" clip-rule="evenodd" d="M59.1544 35.9712C55.1427 39.9064 38.8711 37.7055 32.9346 36.8424C36.3532 37.8871 48.7383 39.7949 55.7358 39.3904C58.3967 39.2366 60.1362 38.1074 64.1497 36.2832C62.3139 36.0944 60.6482 35.991 59.1544 35.9712Z" fill="#ED1C24"/>
<path d="M3.63992 45.4111V53.2474H10.6491L10.0075 55.3639H1.26514V45.4111H3.63992Z" fill="#0D1416"/>
<path d="M20.0961 45.411H22.4709V51.4132C22.4709 54.3118 20.0961 55.5813 17.0284 55.5813C14.0507 55.5813 11.7524 54.2219 11.7524 51.4132V45.7958L14.1272 45.1548V51.4132C14.1272 52.8751 15.1027 53.4271 17.1436 53.4271C19.1207 53.4271 20.0961 52.8373 20.0961 51.4132V45.411Z" fill="#0D1416"/>
<path d="M32.5602 45.4111H35.3202L31.1357 50.3228L35.4488 55.363H32.6889L29.416 51.5023L26.1423 55.363H23.3823L27.6955 50.3228L23.511 45.4111H26.2709L29.416 49.1306L32.5602 45.4111Z" fill="#0D1416"/>
<path d="M43.7151 48.36V53.2465H47.4505C48.7599 53.2465 49.4402 51.772 49.4402 50.3227C49.4402 48.912 48.7986 47.5266 47.4505 47.5266H41.3403L41.9819 45.4102H47.7331C50.5056 45.4102 51.9436 47.9626 51.9436 50.4764C51.9436 52.939 50.5704 55.3629 47.7331 55.3629H41.3403V49.002L43.7151 48.36Z" fill="#0D1416"/>
<path d="M55.8977 53.2465H63.1634L62.5218 55.363H53.5229V45.4111H63.1634L62.5218 47.5275H55.8977V49.3356H62.0718V51.452H55.8977V53.2465Z" fill="#0D1416"/>
<path d="M64.1904 45.4111H74.6002L73.9586 47.5275H70.2358V55.3639H67.861V47.5275H64.1895V45.4111H64.1904Z" fill="#0D1416"/>
<path d="M77.6811 52.003H80.4662L78.5153 47.8736L75.0499 55.3628H72.5464L77.2834 45.7958L79.6582 45.1548L84.5616 55.3637H82.0581L81.4291 54.0295H76.8082L77.6811 52.003Z" fill="#0D1416"/>
<path d="M88.0408 45.4111V55.363H85.666V45.4111H88.0408Z" fill="#0D1416"/>
<path d="M92.7255 45.4111V53.2474H99.7346L99.093 55.3639H90.3516V45.4111H92.7255Z" fill="#0D1416"/>
</g>
<defs>
<clipPath id="clip0_54_550">
<rect width="101" height="85" fill="white"/>
</clipPath>
</defs>
</svg>
