<svg width="150" height="79" viewBox="0 0 150 79" fill="none" xmlns="http://www.w3.org/2000/svg">
<path fill-rule="evenodd" clip-rule="evenodd" d="M110.582 0.743549C104.877 1.65216 99.2167 3.33959 93.7979 5.64181C98.0906 4.09826 102.503 2.94036 106.942 2.24648C133.233 -1.86319 150.495 11.7997 145.499 32.7633C140.503 53.727 115.14 74.0529 88.8489 78.1624C86.6594 78.5047 84.5342 78.721 82.4775 78.8228C85.6336 78.8837 88.9798 78.6504 92.4889 78.0916C118.78 73.9045 144.143 53.1952 149.139 31.8361C154.135 10.4769 136.873 -3.44356 110.582 0.743549Z" fill="#FF5100"/>
<path d="M124.446 4.39551C132.094 6.1828 137.768 10.2207 140.728 15.8252C138.873 16.8821 136.563 18.1894 134.457 19.3789C132.042 14.459 127.49 10.8164 121.432 8.87891L121.25 8.82129L121.076 8.89941L120.355 9.22168L124.446 4.39551Z" fill="#0D1416" stroke="#0D1416"/>
<path d="M141.858 18.4092C143.256 22.3528 143.475 26.9517 142.261 32.0459C141.644 34.6373 140.684 37.2215 139.43 39.7666L133.732 39.6787C134.557 37.8123 135.21 35.9217 135.663 34.0205C136.647 29.8884 136.617 26.07 135.698 22.6826L135.598 22.3135H134.989C135.042 22.2837 135.094 22.2527 135.147 22.2227L135.148 22.2236L135.151 22.2217L135.153 22.2207C137.321 20.9948 139.808 19.5823 141.858 18.4092Z" fill="#0D1416" stroke="#0D1416"/>
<path d="M90.9319 71.2017L91.1682 73.9497C90.6341 74.0483 90.1002 74.1426 89.5657 74.2261C82.7604 75.2898 76.6263 75.0669 71.4202 73.7876L72.3323 72.1538C76.895 73.1266 82.153 73.2382 87.9094 72.3384C88.6817 72.2177 89.453 72.0802 90.2219 71.9263L90.4954 71.8716L90.593 71.6099L90.8958 70.7925L90.9319 71.2017Z" fill="#0D1416" stroke="#0D1416"/>
<path d="M109.996 63.8809L112.187 66.3896C106.447 69.5103 100.262 71.9226 93.9478 73.373L93.7515 71.1055C99.1555 69.6798 104.42 67.4948 109.3 64.7451L109.584 64.5859L109.553 64.2617L109.456 63.2637L109.996 63.8809Z" fill="#0D1416" stroke="#0D1416"/>
<path d="M132.057 42.4678L137.93 42.5566C132.903 51.1607 124.577 59.104 114.685 64.9717L112.7 62.6992C120.656 57.5955 127.358 50.9919 131.586 43.8398L131.817 43.4502L131.453 43.1816L130.446 42.4424L132.057 42.4678Z" fill="#0D1416" stroke="#0D1416"/>
<path d="M96.3379 9.32617C94.0912 9.94732 91.8708 10.6993 89.6943 11.5674C88.4727 11.4291 87.0379 11.2774 85.4707 11.1328C88.959 9.32984 92.5994 7.7902 96.3223 6.56738L96.3379 9.32617Z" fill="#0D1416" stroke="#0D1416"/>
<path d="M62.7864 68.2041C64.4862 69.3696 66.4101 70.3402 68.5334 71.0908L68.7659 71.1729L68.9729 71.0381L70.1692 70.2559L69.8284 70.8682L69.8225 70.8789L68.6506 72.9756C65.3859 71.8596 62.5657 70.2855 60.262 68.3203L62.7864 68.2041Z" fill="#0D1416" stroke="#0D1416"/>
<path d="M106.681 4.0498C111.989 3.22012 116.89 3.1718 121.26 3.79785L117.744 7.94824C113.349 7.11034 108.337 7.05468 102.876 7.9082C101.721 8.0888 100.568 8.30729 99.4204 8.56055L99.1655 8.61621L99.147 8.65918L99.1294 5.70801C101.625 5.00365 104.149 4.44557 106.681 4.0498Z" fill="#0D1416" stroke="#0D1416"/>
<path d="M2.68123 62.1163H0L4.32993 49.981H6.67809L10.9747 62.1163H8.75978L8.01037 59.6027H3.51391L2.68123 62.1163ZM4.18005 58.1711H7.29427L5.77879 53.0273H5.74549L4.18005 58.1711Z" fill="#FF5100"/>
<path d="M14.6917 50.0642V58.0379C14.6917 58.1933 14.7084 58.3542 14.7417 58.5207C14.7861 58.6871 14.8582 58.848 14.9582 59.0034C15.0692 59.1477 15.2135 59.2698 15.3912 59.3696C15.5688 59.4584 15.8019 59.5028 16.0906 59.5028H17.756C18.0335 59.5028 18.2667 59.4584 18.4554 59.3696C18.6442 59.2698 18.794 59.1477 18.9051 59.0034C19.0272 58.848 19.1105 58.6816 19.1549 58.504C19.2104 58.3153 19.2381 58.1267 19.2381 57.938V50.0642H21.9194V58.5207C21.9194 59.1532 21.8139 59.697 21.6029 60.152C21.4031 60.607 21.1311 60.9788 20.7869 61.2673C20.4427 61.5559 20.0431 61.7667 19.5879 61.8999C19.1327 62.0442 18.6497 62.1163 18.139 62.1163H15.9241C15.3245 62.1163 14.775 62.0164 14.2754 61.8167C13.7758 61.628 13.3483 61.3617 12.993 61.0176C12.6489 60.6625 12.388 60.2464 12.2103 59.7692C12.0327 59.2919 11.9605 58.7648 11.9938 58.1877V50.0642H14.6917Z" fill="#FF5100"/>
<path d="M23.5318 49.981H34.0568V52.5445H30.1932V62.1163H27.6119V52.5445H23.5318V49.981Z" fill="#FF5100"/>
<path d="M41.0024 62.1163H38.5377C38.1713 62.1163 37.7716 62.0608 37.3386 61.9499C36.9167 61.8389 36.5226 61.6502 36.1562 61.3839C35.7898 61.1286 35.4845 60.7901 35.2403 60.3684C35.0071 59.9467 34.8905 59.4251 34.8905 58.8036V53.5933C34.8905 53.0495 34.996 52.5556 35.207 52.1117C35.4179 51.6678 35.701 51.2905 36.0563 50.9798C36.4227 50.6579 36.8446 50.4138 37.322 50.2473C37.7994 50.0697 38.3045 49.981 38.8374 49.981H40.5361C41.0801 49.981 41.5853 50.0697 42.0516 50.2473C42.5179 50.4138 42.9176 50.6579 43.2506 50.9798C43.5948 51.2905 43.8613 51.6678 44.05 52.1117C44.2388 52.5445 44.3331 53.0328 44.3331 53.5766V58.8536C44.3331 59.3419 44.2277 59.7913 44.0167 60.202C43.8169 60.6015 43.5504 60.9455 43.2173 61.2341C42.8954 61.5115 42.5345 61.7279 42.1349 61.8833C41.7463 62.0386 41.3688 62.1163 41.0024 62.1163ZM40.1031 60.1187C40.636 60.1187 41.0635 59.98 41.3854 59.7026C41.7074 59.414 41.8684 59.0034 41.8684 58.4707V53.7597C41.8684 53.5489 41.8295 53.3491 41.7518 53.1605C41.6852 52.9718 41.5797 52.8053 41.4354 52.6611C41.2911 52.5168 41.1079 52.4058 40.8858 52.3281C40.6749 52.2393 40.4195 52.195 40.1198 52.195H39.1872C38.8874 52.195 38.621 52.2393 38.3878 52.3281C38.1658 52.4169 37.977 52.5334 37.8216 52.6777C37.6661 52.822 37.5496 52.9884 37.4719 53.1771C37.3941 53.3658 37.3553 53.5655 37.3553 53.7764V58.4707C37.3553 58.9257 37.483 59.3141 37.7383 59.636C37.9937 59.9578 38.4322 60.1187 39.0539 60.1187H40.1031Z" fill="#FF5100"/>
<path d="M56.1518 49.9976H58.6332V62.1163H56.1518V53.1605L53.5205 55.4743L50.9226 53.1771V62.1163H48.1248V49.981H50.9226L53.5538 52.9274L56.1518 49.9976Z" fill="#0D1416"/>
<path d="M66.0109 62.1163H63.5461C63.1797 62.1163 62.7801 62.0608 62.3471 61.9499C61.9252 61.8389 61.531 61.6502 61.1647 61.3839C60.7983 61.1286 60.493 60.7901 60.2487 60.3684C60.0156 59.9467 59.899 59.4251 59.899 58.8036V53.5933C59.899 53.0495 60.0045 52.5556 60.2154 52.1117C60.4264 51.6678 60.7095 51.2905 61.0647 50.9798C61.4311 50.6579 61.853 50.4138 62.3304 50.2473C62.8078 50.0697 63.313 49.981 63.8459 49.981H65.5446C66.0886 49.981 66.5937 50.0697 67.06 50.2473C67.5263 50.4138 67.926 50.6579 68.2591 50.9798C68.6033 51.2905 68.8697 51.6678 69.0585 52.1117C69.2472 52.5445 69.3416 53.0328 69.3416 53.5766V58.8536C69.3416 59.3419 69.2361 59.7913 69.0252 60.202C68.8253 60.6015 68.5589 60.9455 68.2258 61.2341C67.9038 61.5115 67.543 61.7279 67.1433 61.8833C66.7547 62.0386 66.3772 62.1163 66.0109 62.1163ZM65.1116 60.1187C65.6445 60.1187 66.0719 59.98 66.3939 59.7026C66.7159 59.414 66.8768 59.0034 66.8768 58.4707V53.7597C66.8768 53.5489 66.838 53.3491 66.7603 53.1605C66.6937 52.9718 66.5882 52.8053 66.4439 52.6611C66.2995 52.5168 66.1163 52.4058 65.8943 52.3281C65.6833 52.2393 65.428 52.195 65.1282 52.195H64.1956C63.8959 52.195 63.6294 52.2393 63.3962 52.3281C63.1742 52.4169 62.9855 52.5334 62.83 52.6777C62.6746 52.822 62.558 52.9884 62.4803 53.1771C62.4026 53.3658 62.3637 53.5655 62.3637 53.7764V58.4707C62.3637 58.9257 62.4914 59.3141 62.7468 59.636C63.0021 59.9578 63.4407 60.1187 64.0624 60.1187H65.1116Z" fill="#0D1416"/>
<path d="M70.333 49.981H80.858V52.5445H76.9944V62.1163H74.4131V52.5445H70.333V49.981Z" fill="#0D1416"/>
<path d="M84.3239 62.1163H81.8925V49.9976H84.3239V62.1163Z" fill="#0D1416"/>
<path d="M85.2918 49.981H88.2728C88.6724 51.5568 89.0277 52.9773 89.3386 54.2425C89.4718 54.7752 89.5995 55.3023 89.7216 55.8239C89.8548 56.3455 89.9714 56.8172 90.0713 57.2389C90.1713 57.6495 90.2545 57.9935 90.3211 58.271C90.3878 58.5373 90.4211 58.6871 90.4211 58.7204C90.4322 58.6871 90.4877 58.5373 90.5876 58.271C90.6986 57.9935 90.8318 57.6495 90.9873 57.2389C91.1427 56.8172 91.3148 56.3455 91.5035 55.8239C91.6923 55.3023 91.8866 54.7752 92.0864 54.2425C92.5416 52.9773 93.0634 51.5568 93.6519 49.981H96.8993L91.8366 62.1163H89.0388L85.2918 49.981Z" fill="#0D1416"/>
<path d="M107.059 51.912H101.546V54.8751H106.093V56.5231H101.546V60.2852H107.059V62.0997H98.7984V49.9976H107.059V51.912Z" fill="#0D1416"/>
<path d="M95.4951 41.2596L108.464 40.6748" stroke="#0D1416" stroke-width="0.5669" stroke-miterlimit="22.9256"/>
<path d="M77.0161 26.1069C77.7166 26.038 78.412 26.311 79.0854 26.894C79.762 27.4799 80.3853 28.3543 80.9106 29.4028L81.0698 29.7212L81.0718 29.7202L81.2427 30.1196C81.7072 31.2031 82.0568 32.3979 82.2642 33.5698C82.0103 32.4531 81.6393 31.4409 81.1733 30.5854C80.2631 28.9143 78.9228 27.729 77.3208 27.729C75.7188 27.729 74.3786 28.9143 73.4683 30.5854C72.5476 32.2757 71.9937 34.5772 71.9937 37.0913C71.9937 39.6052 72.5476 41.9061 73.4683 43.5962C74.3786 45.2674 75.7188 46.4526 77.3208 46.4526C78.9228 46.4526 80.2631 45.2674 81.1733 43.5962C81.3989 43.1822 81.601 42.731 81.7798 42.2495L81.6577 42.6831L82.3638 42.6362L95.5171 41.7583L95.5181 41.7593L108.487 41.1743L109 41.1509L108.963 40.6392V40.6382C108.963 40.6358 108.963 40.6309 108.962 40.6245C108.962 40.6118 108.96 40.5912 108.959 40.563C108.958 40.5061 108.956 40.418 108.957 40.2993C108.958 40.0619 108.97 39.702 109.011 39.2251C109.084 38.3905 109.248 37.1968 109.61 35.6724L109.777 34.9985C110.255 33.1561 110.974 31.3875 111.869 30.0923C112.773 28.7823 113.783 28.0591 114.828 28.0591C115.874 28.0593 116.853 28.8658 117.625 29.8237C117.999 30.2865 118.297 30.7519 118.502 31.103C118.605 31.278 118.683 31.4235 118.736 31.5239C118.762 31.5741 118.782 31.6134 118.794 31.6392C118.801 31.6519 118.806 31.6615 118.809 31.6675C118.81 31.6702 118.811 31.6721 118.812 31.6733V31.6743L119.627 31.4663C119.627 31.7522 119.628 32.0403 119.624 32.3237C119.611 33.144 119.586 33.9212 119.563 34.4937C119.561 34.5476 119.557 34.5998 119.555 34.6499C119.361 33.6154 119.065 32.6783 118.684 31.8931C117.995 30.4718 116.947 29.3874 115.631 29.3872C114.315 29.3872 113.268 30.4718 112.579 31.8931C111.873 33.3489 111.45 35.3253 111.45 37.481C111.45 39.6365 111.872 41.613 112.578 43.0688C113.267 44.4902 114.315 45.5747 115.631 45.5747C116.509 45.5746 117.266 45.0905 117.878 44.3472C117.854 44.3858 117.832 44.4263 117.807 44.4644L117.336 45.187L118.198 45.2358C120.006 45.3384 121.48 45.4491 122.579 45.562C122.038 45.6176 121.405 45.6745 120.683 45.728C117.943 45.9314 113.97 46.1147 109.053 46.269C99.2221 46.5776 85.6368 46.7681 70.6284 46.7681C55.62 46.7681 42.0347 46.5776 32.2036 46.269C27.2873 46.1147 23.315 45.9314 20.5747 45.728C19.8536 45.6745 19.2205 45.6185 18.6802 45.563C19.9383 45.4337 21.6852 45.307 23.8599 45.1919C28.6594 44.9378 35.5085 44.7265 43.6968 44.5796L43.6929 43.5796C40.7663 43.5517 38.3263 43.5273 37.1392 43.5142C34.9617 43.49 31.5378 43.2847 28.6479 43.0835C27.2054 42.9831 25.8997 42.8839 24.9546 42.8101C24.482 42.7731 24.0996 42.7426 23.8354 42.7212C23.7993 42.7183 23.7655 42.715 23.7339 42.7124L23.2788 41.5679L24.5532 42.1958L24.9536 42.3931L25.1948 42.0171L25.1958 42.0151C25.1967 42.0138 25.198 42.0119 25.1997 42.0093C25.2032 42.0039 25.2085 41.9955 25.2153 41.9849C25.229 41.9637 25.2493 41.9327 25.2749 41.8931C25.3264 41.8135 25.4 41.6991 25.4897 41.562C25.6693 41.2877 25.912 40.9216 26.1626 40.5532C26.4141 40.1836 26.6707 39.8167 26.8804 39.5386C26.9859 39.3986 27.0739 39.2879 27.1401 39.2134C27.1589 39.213 27.18 39.2127 27.2026 39.2124C27.3441 39.2104 27.5466 39.21 27.8032 39.2114C28.3162 39.2144 29.036 39.2239 29.895 39.2388C31.6126 39.2685 33.8832 39.3186 36.1646 39.3765C38.446 39.4343 40.7376 39.4999 42.4976 39.5601C43.3778 39.5901 44.1239 39.6184 44.6685 39.644C44.9409 39.6569 45.1607 39.6693 45.3208 39.6802C45.503 39.6926 45.5617 39.7007 45.5532 39.6987C45.5526 39.699 45.6141 39.7211 45.7612 39.8081C45.8956 39.8876 46.0638 39.9976 46.2563 40.1323C46.6409 40.4013 47.1001 40.7507 47.5454 41.0991C47.9896 41.4466 48.4155 41.7895 48.73 42.0464C48.887 42.1747 49.0161 42.2816 49.106 42.356C49.1506 42.3929 49.1857 42.4221 49.2095 42.4419C49.2212 42.4517 49.2308 42.4593 49.2368 42.4644C49.2398 42.4668 49.2422 42.469 49.2437 42.4702L49.2456 42.4722L49.3989 42.6001L49.5972 42.5874L67.0522 41.5151L67.0249 40.5161L53.3706 40.4194L46.686 36.1401C46.9905 36.1062 47.3364 36.0683 47.7153 36.0259C49.1791 35.862 51.1374 35.6403 53.1157 35.4116C55.0939 35.183 57.0939 34.947 58.6392 34.7524C59.4113 34.6552 60.0729 34.5682 60.562 34.4976C60.8058 34.4623 61.0102 34.4309 61.1655 34.4038C61.2976 34.3808 61.4504 34.3515 61.5454 34.3149C61.8672 34.1912 64.5377 33.1429 67.1245 32.1265C68.4196 31.6176 69.6954 31.1158 70.647 30.7417C71.1226 30.5547 71.5176 30.4 71.7935 30.2915C71.9312 30.2374 72.0391 30.1945 72.1128 30.1655C72.1497 30.151 72.1787 30.1398 72.1978 30.1323C72.207 30.1287 72.2145 30.1254 72.2192 30.1235C72.2214 30.1227 72.223 30.122 72.2241 30.1216H72.2261V30.1206L72.4009 30.0522L72.4868 29.8862V29.8853C72.4874 29.8841 72.4893 29.8821 72.4907 29.8794C72.4937 29.8737 72.4989 29.865 72.5054 29.853C72.5187 29.8285 72.5392 29.791 72.5669 29.7427C72.6223 29.646 72.7055 29.5056 72.8149 29.3354C73.0345 28.9941 73.3563 28.5367 73.7651 28.0728C74.5976 27.1282 75.7204 26.2345 77.0161 26.1069ZM104.572 42.4673L92.0581 43.4956L92.0923 44.4937C97.0566 44.5607 101.638 44.6503 105.707 44.7583L106.963 44.7915L106.073 43.9048C105.709 43.5419 105.444 43.2332 105.273 43.0181C105.187 42.9105 105.125 42.8257 105.085 42.77C105.066 42.7423 105.051 42.7215 105.042 42.7085C105.038 42.702 105.034 42.6974 105.033 42.6948C105.032 42.694 105.032 42.6932 105.032 42.6929H105.031L104.869 42.4429L104.572 42.4673ZM77.3208 30.2896C77.6103 30.2896 77.9227 30.419 78.2485 30.7271C78.577 31.0376 78.8959 31.5101 79.1743 32.1323C79.7306 33.3756 80.0874 35.1288 80.0874 37.0913C80.0873 39.0537 79.7305 40.8061 79.1743 42.0493C78.8959 42.6715 78.577 43.144 78.2485 43.4546C77.9227 43.7626 77.6103 43.8921 77.3208 43.8921C77.0313 43.8921 76.7189 43.7626 76.3931 43.4546C76.0646 43.144 75.7457 42.6716 75.4673 42.0493C74.911 40.8061 74.5543 39.0536 74.5542 37.0913C74.5542 35.1288 74.911 33.3756 75.4673 32.1323C75.7457 31.5101 76.0646 31.0376 76.3931 30.7271C76.7189 30.419 77.0313 30.2896 77.3208 30.2896ZM115.631 31.7241C115.793 31.7242 115.998 31.804 116.237 32.0581C116.477 32.3134 116.717 32.7103 116.928 33.2417C117.35 34.3017 117.623 35.8004 117.623 37.481C117.623 39.1616 117.35 40.6603 116.928 41.7202C116.717 42.2514 116.477 42.6475 116.237 42.9028C115.998 43.157 115.793 43.2377 115.631 43.2378C115.47 43.2378 115.264 43.1572 115.025 42.9028C114.785 42.6475 114.545 42.2513 114.333 41.7202C113.911 40.6603 113.64 39.1616 113.64 37.481C113.64 35.8004 113.912 34.3017 114.333 33.2417C114.545 32.7103 114.785 32.3134 115.025 32.0581C115.264 31.8038 115.47 31.7241 115.631 31.7241ZM106.439 26.4966L106.237 26.5591L106.141 26.7476V26.7485C106.141 26.7492 106.14 26.7502 106.139 26.7515C106.138 26.7541 106.136 26.7581 106.133 26.7632C106.128 26.7739 106.12 26.7901 106.109 26.811C106.088 26.8528 106.056 26.9142 106.015 26.9937C105.934 27.1529 105.816 27.3841 105.668 27.6704C105.394 28.2032 105.018 28.9273 104.594 29.7397L94.3384 32.8462L94.5845 33.814L103.406 31.9917C102.809 33.1138 102.207 34.2319 101.696 35.1323C101.368 35.7093 101.084 36.1908 100.867 36.5269C100.759 36.6928 100.674 36.8129 100.614 36.8892C100.449 36.918 100.187 36.9667 99.8657 37.0288C99.3645 37.1257 98.6753 37.2612 97.8638 37.4224C96.2405 37.7447 94.1225 38.1707 92.02 38.5942C89.9172 39.0178 87.8289 39.4392 86.2671 39.7554C85.6305 39.8842 85.0811 39.9949 84.6538 40.0815C84.7684 39.8407 84.8986 39.5713 85.0269 39.2944C85.2304 38.8551 85.438 38.3954 85.5981 38.0132C85.6779 37.8227 85.7477 37.6463 85.8003 37.4985C85.8468 37.368 85.8986 37.2095 85.9116 37.0796C85.9503 36.6931 86.3933 32.3359 86.5767 30.5308L86.6255 30.0464L86.1421 29.9839L82.5522 29.5259L106.975 26.3296L106.439 26.4966ZM23.1128 34.314C23.7616 34.8066 24.5775 35.3954 25.0962 35.6411C25.5074 35.8359 25.8763 35.9971 26.1616 36.1177L24.2212 38.7739L23.7026 36.3755L22.8511 36.4536L22.7554 34.0356C22.869 34.1238 22.988 34.2192 23.1128 34.314ZM29.5815 26.5815C28.5989 27.0643 27.6346 27.6094 26.7134 28.229L26.6196 28.2925L26.562 28.3901L26.561 28.3911L26.5571 28.3989C26.5542 28.404 26.5498 28.4112 26.5444 28.4204C26.5336 28.4391 26.5181 28.4661 26.4985 28.5005C26.4591 28.5697 26.4025 28.6696 26.3364 28.7905C26.2048 29.0316 26.0307 29.362 25.8638 29.7163C25.698 30.0681 25.5327 30.4578 25.4243 30.812C25.3702 30.9888 25.3262 31.17 25.3062 31.3413C25.2871 31.5042 25.284 31.7055 25.3521 31.896C25.4278 32.108 25.5923 32.4329 25.7749 32.771C25.9637 33.1205 26.1911 33.5193 26.4087 33.8931C26.4271 33.9246 26.4461 33.9556 26.4644 33.9868C26.1202 33.8296 25.7999 33.6726 25.6011 33.5474C25.2821 33.3465 24.5299 32.8352 23.8472 32.3667C23.5161 32.1395 23.2044 31.9247 22.9722 31.7642C24.4888 29.5574 26.8964 27.868 29.5815 26.5815ZM88.437 14.6157C95.9352 15.5467 102.245 17.7347 109.853 21.9985L109.962 22.0591L110.086 22.062H110.099C110.107 22.0622 110.119 22.0626 110.135 22.063C110.167 22.0638 110.214 22.0653 110.275 22.0669C110.396 22.0701 110.569 22.0747 110.781 22.0815C111.204 22.0952 111.777 22.1167 112.376 22.147C112.977 22.1773 113.599 22.2159 114.124 22.2651C114.67 22.3165 115.05 22.3744 115.206 22.4263C115.198 22.4238 115.219 22.4299 115.272 22.4663C115.321 22.5002 115.384 22.55 115.46 22.6177C115.613 22.7534 115.798 22.9431 116.007 23.1772C116.425 23.6445 116.913 24.2626 117.391 24.9214C117.869 25.5792 118.331 26.2697 118.7 26.8794C119.076 27.5024 119.33 28.0027 119.42 28.2925C119.508 28.5753 119.57 29.1468 119.602 29.9048C119.604 29.9467 119.604 29.9891 119.606 30.0317C119.521 29.49 119.394 28.86 119.198 28.3159C118.957 27.6471 118.416 26.7258 117.887 25.8999C117.35 25.0609 116.796 24.2729 116.503 23.8579C115.822 22.8931 114.832 22.5447 114.386 22.481C114.271 22.4645 113.895 22.4444 113.446 22.4224C112.978 22.3994 112.386 22.3735 111.807 22.3491C111.228 22.3247 110.659 22.3014 110.235 22.2847C110.023 22.2763 109.847 22.2699 109.724 22.2651C109.713 22.2647 109.703 22.2636 109.693 22.2632L109.091 21.8638C103.494 18.1444 96.2241 15.719 88.437 14.6157ZM73.2388 14.1235C64.3219 14.7864 55.6272 17.1278 48.7495 21.23L49.1899 22.1245C56.6082 19.1741 62.2494 17.5076 67.8169 16.6733C72.7572 15.9331 77.6577 15.8448 83.7144 16.1099C81.8809 17.0542 80.2589 18.5663 78.9497 20.7974L79.771 21.3638C82.8597 17.5237 86.8991 16.4955 91.1069 16.9624C95.018 17.3965 99.0505 19.1252 102.513 21.0894C102.365 21.1495 102.203 21.2146 102.027 21.2798C101.282 21.5558 100.325 21.8473 99.3481 21.9829L97.8032 19.0034L96.8833 19.3872L97.7466 22.0669C95.8534 22.0969 91.0353 22.2445 86.4839 22.3911C83.93 22.4734 81.4548 22.556 79.6187 22.6177C78.7008 22.6485 77.9425 22.6739 77.4136 22.6919C77.1493 22.7009 76.9422 22.7076 76.8013 22.7124C76.7308 22.7148 76.6765 22.717 76.6401 22.7183C76.6221 22.7189 76.6083 22.7189 76.5991 22.7192H76.5874C76.5693 22.7188 76.5424 22.718 76.5073 22.7173C76.4373 22.7158 76.3344 22.7145 76.2017 22.7124C75.9359 22.7083 75.5505 22.7038 75.0718 22.7026C74.1142 22.7003 72.7805 22.7111 71.2769 22.7632C68.28 22.867 64.567 23.1351 61.8081 23.8062C59.2626 24.4254 55.3711 25.9575 51.9458 27.4116C52.8486 26.9711 53.8186 26.5016 54.7632 26.0474C56.1183 25.3957 57.4144 24.7771 58.3716 24.3218C58.85 24.0942 59.244 23.9068 59.5181 23.7769C59.6546 23.7121 59.7617 23.6619 59.8345 23.6274C59.8707 23.6103 59.8987 23.5963 59.9175 23.5874C59.9268 23.583 59.9342 23.5799 59.939 23.5776C59.9413 23.5765 59.9436 23.5753 59.9448 23.5747H59.9458H59.9468L59.728 22.6226L44.2925 22.7651C44.3334 22.7613 44.3701 22.7574 44.4028 22.7544C44.4645 22.7488 44.5113 22.7443 44.5425 22.7417C44.5581 22.7404 44.57 22.7403 44.5776 22.7397C44.5811 22.7395 44.5837 22.7389 44.5854 22.7388H44.5884L45.1099 22.6997L45.0474 22.1802C44.8926 20.8954 45.8427 20.5145 46.2886 20.644C46.4879 20.7021 47.0159 20.8117 47.4624 20.9019C47.6311 20.9359 47.7938 20.9683 47.9321 20.9956V21.4214L48.6694 21.0249C56.0223 17.0722 64.9862 14.5291 73.2388 14.1235ZM43.1538 22.9722C42.7281 23.1162 42.0478 23.3626 41.0171 23.7798C39.9616 24.207 37.0917 25.7111 34.521 27.0874C34.4879 27.1051 34.4544 27.1224 34.4214 27.1401L37.1675 24.9253L36.7495 24.0825C38.7051 23.5944 40.499 23.2719 41.8774 23.0659C42.5433 22.9664 43.1116 22.8952 43.5532 22.8442C43.457 22.8733 43.3258 22.914 43.1538 22.9722Z" fill="#0D1416" stroke="#0D1416"/>
<path d="M63.158 28.04C60.6037 31.4656 59.0923 32.6598 57.072 33.1709C55.8685 33.4753 54.4656 33.5427 52.4988 33.625C51.6138 33.662 50.6243 33.7026 49.5037 33.7705C50.1937 33.5543 50.9201 33.3257 51.6492 33.0938C53.317 32.5632 55.0028 32.0166 56.2996 31.5713C56.947 31.349 57.5028 31.1499 57.9128 30.9902C58.117 30.9107 58.2919 30.8382 58.4265 30.7754C58.4933 30.7443 58.5575 30.7129 58.613 30.6807C58.6551 30.6562 58.7411 30.6043 58.8113 30.5264C58.8019 30.5368 58.8151 30.5219 58.8796 30.4746C58.9361 30.4332 59.0132 30.3805 59.1111 30.3174C59.3065 30.1913 59.5677 30.0335 59.8748 29.8545C60.4878 29.4971 61.2674 29.0642 62.0369 28.6445C62.4208 28.4351 62.8029 28.2308 63.158 28.04Z" fill="#0D1416" stroke="#0D1416"/>
<mask id="path-14-inside-1_54_462" fill="white">
<path fill-rule="evenodd" clip-rule="evenodd" d="M28.4543 35.1639C30.4797 35.145 32.572 35.3682 34.692 35.3496C37.4492 35.3254 40.108 35.2832 42.8698 35.1686C44.0444 35.1199 43.6087 35.0977 44.349 35.1639C43.6797 35.406 43.9783 35.3204 42.9043 35.502C38.9422 36.1719 32.2845 36.431 28.4543 35.1639Z"/>
</mask>
<path fill-rule="evenodd" clip-rule="evenodd" d="M28.4543 35.1639C30.4797 35.145 32.572 35.3682 34.692 35.3496C37.4492 35.3254 40.108 35.2832 42.8698 35.1686C44.0444 35.1199 43.6087 35.0977 44.349 35.1639C43.6797 35.406 43.9783 35.3204 42.9043 35.502C38.9422 36.1719 32.2845 36.431 28.4543 35.1639Z" fill="#0D1416"/>
<path d="M28.4543 35.1639L28.445 34.1639L28.1403 36.1133L28.4543 35.1639ZM34.692 35.3496L34.7008 36.3496L34.7008 36.3496L34.692 35.3496ZM42.8698 35.1686L42.9113 36.1678L42.9113 36.1678L42.8698 35.1686ZM44.349 35.1639L44.6891 36.1043L44.4381 34.1679L44.349 35.1639ZM42.9043 35.502L43.071 36.488L43.071 36.488L42.9043 35.502ZM28.4543 35.1639L28.4637 36.1638C29.442 36.1547 30.4415 36.204 31.4887 36.2554C32.5258 36.3064 33.6073 36.3592 34.7008 36.3496L34.692 35.3496L34.6832 34.3497C33.6568 34.3587 32.6321 34.3092 31.5867 34.2578C30.5514 34.207 29.4921 34.1542 28.445 34.1639L28.4543 35.1639ZM34.692 35.3496L34.7008 36.3496C37.462 36.3253 40.1334 36.283 42.9113 36.1678L42.8698 35.1686L42.8284 34.1695C40.0826 34.2834 37.4364 34.3254 34.6832 34.3497L34.692 35.3496ZM42.8698 35.1686L42.9113 36.1678C43.2113 36.1553 43.4098 36.1445 43.5504 36.1363C43.7026 36.1275 43.7542 36.1239 43.7981 36.1228C43.853 36.1214 43.839 36.1223 44.2599 36.1599L44.349 35.1639L44.4381 34.1679C44.1187 34.1393 43.9525 34.1182 43.7465 34.1235C43.6599 34.1257 43.5539 34.1327 43.4343 34.1397C43.3031 34.1473 43.1156 34.1576 42.8283 34.1695L42.8698 35.1686ZM44.349 35.1639L44.0088 34.2235C43.6214 34.3637 43.6231 34.3659 43.5632 34.3791C43.5256 34.3874 43.4718 34.3967 43.3314 34.4191C43.1991 34.4402 43.0115 34.4697 42.7375 34.516L42.9043 35.502L43.071 36.488C43.5488 36.4072 43.8205 36.3704 43.9936 36.3322C44.2203 36.2823 44.4073 36.2062 44.6891 36.1043L44.349 35.1639ZM42.9043 35.502L42.7376 34.516C40.8161 34.8409 38.2183 35.069 35.6336 35.0594C33.0312 35.0496 30.5338 34.7985 28.7684 34.2145L28.4543 35.1639L28.1403 36.1133C30.205 36.7964 32.9515 37.0493 35.6261 37.0593C38.3182 37.0694 41.0303 36.8331 43.071 36.488L42.9043 35.502Z" fill="#0D1416" mask="url(#path-14-inside-1_54_462)"/>
<path d="M44.5554 31.0073C44.2205 31.1366 43.8992 31.2606 43.5935 31.3794C43.8567 31.2059 44.1363 31.0218 44.4363 30.8335L44.5554 31.0073ZM63.9138 24.4067C62.7212 24.6866 61.307 25.0888 59.7839 25.564C58.7148 25.8975 57.5842 26.2713 56.4265 26.6646C58.54 25.8444 60.5454 25.1425 62.0447 24.7778C62.6265 24.6363 63.2554 24.5142 63.9138 24.4067ZM73.7039 23.7104C72.2457 23.7496 70.8973 23.7901 69.7224 23.8325C70.2654 23.804 70.7977 23.78 71.3113 23.7622C72.1794 23.7321 72.9905 23.7182 73.7039 23.7104ZM57.4324 23.6626L57.1785 23.646L57.4724 23.6431C57.4591 23.6494 57.4458 23.6562 57.4324 23.6626ZM96.699 23.0884C95.7249 23.1399 94.4516 23.1907 92.9666 23.2378C90.5707 23.3138 87.6536 23.3836 84.6199 23.4526C85.2411 23.4323 85.8764 23.4107 86.5164 23.3901C90.3808 23.2657 94.4158 23.1416 96.699 23.0884Z" fill="#CCCCCC" stroke="#0D1416"/>
<path d="M33.7688 36.5088C34.3839 36.5397 35.0069 36.5572 35.6282 36.5596C36.0895 36.5613 36.5512 36.5532 37.01 36.541C35.9607 36.629 34.8656 36.6344 33.7688 36.5088Z" fill="#CCCCCC" stroke="#0D1416"/>
<path d="M27.9468 28.624C27.756 28.8604 27.5799 29.1105 27.4243 29.3545C27.0281 29.9757 26.7149 30.63 26.5815 31.0596C26.5296 31.2269 26.517 31.4183 26.5181 31.5908C26.5191 31.7478 26.5329 31.9202 26.5522 32.0986C26.4217 31.8496 26.3305 31.6631 26.2935 31.5596C26.3006 31.5795 26.2877 31.5561 26.2993 31.457C26.3099 31.3667 26.3364 31.2484 26.3804 31.1045C26.4685 30.8165 26.6118 30.4764 26.769 30.1426C26.9249 29.8118 27.0886 29.4998 27.2144 29.2695C27.2766 29.1555 27.3289 29.0617 27.3657 28.9971C27.5575 28.8696 27.7512 28.7452 27.9468 28.624Z" fill="#CCCCCC" stroke="#0D1416"/>
<path d="M46.3057 38.9658C46.7302 39.1888 47.2794 39.4895 47.8369 39.7988C48.9354 40.4084 50.0947 41.0668 50.3145 41.1768C50.4311 41.2351 50.5688 41.2682 50.6787 41.2891C50.8 41.312 50.9388 41.3293 51.082 41.3438C51.369 41.3727 51.7043 41.3906 52.0186 41.4014C52.1711 41.4066 52.3204 41.4066 52.459 41.4092L49.7334 41.5771C49.6427 41.5021 49.5154 41.3975 49.3623 41.2725C49.0445 41.0129 48.6136 40.6647 48.1621 40.3115C47.7116 39.9591 47.2353 39.5976 46.8291 39.3135C46.6292 39.1736 46.4403 39.0484 46.2764 38.9512C46.286 38.9562 46.2959 38.9607 46.3057 38.9658ZM26.3701 38.2871C26.3707 38.2871 26.3729 38.2871 26.374 38.2871C26.3763 38.2872 26.3796 38.288 26.3838 38.2881C26.393 38.2883 26.4068 38.2877 26.4248 38.2881C26.461 38.2888 26.515 38.2907 26.585 38.292C26.616 38.2926 26.6502 38.2923 26.6875 38.293C26.6139 38.3333 26.5611 38.3808 26.5371 38.4023C26.4877 38.4468 26.4383 38.4984 26.3926 38.5498C26.3002 38.6538 26.1935 38.7886 26.082 38.9365C25.8575 39.2343 25.5902 39.6174 25.3359 39.9912C25.0808 40.3663 24.8348 40.7374 24.6533 41.0146C24.6335 41.0449 24.6139 41.0737 24.5957 41.1016L23.9805 40.7988L24.373 40.2627L25.8232 38.2773L26.3701 38.2871ZM45.6602 38.6475C45.6893 38.6594 45.7315 38.6769 45.7871 38.7031C45.825 38.721 45.8663 38.7439 45.9121 38.7666C45.8669 38.7493 45.8219 38.7347 45.7783 38.7246C45.6906 38.7044 45.5366 38.6927 45.3887 38.6826C45.2184 38.671 44.9901 38.6585 44.7148 38.6455C44.4975 38.6353 44.2489 38.6272 43.9736 38.6162C44.8469 38.6322 45.4516 38.6442 45.6602 38.6475Z" fill="#CCCCCC" stroke="#0D1416"/>
<path d="M85.532 30.9136L85.4832 31.394C85.458 31.3406 85.4315 31.3046 85.4207 31.2905C85.3851 31.2445 85.3473 31.2099 85.323 31.189C85.2725 31.1455 85.214 31.1053 85.1619 31.0718C85.0536 31.002 84.9091 30.9208 84.7498 30.8354C84.7322 30.826 84.7142 30.8168 84.696 30.8071L85.532 30.9136Z" fill="#CCCCCC" stroke="#0D1416"/>
<path d="M111.765 23.3481C112.344 23.3725 112.932 23.3986 113.397 23.4214C113.629 23.4328 113.829 23.4435 113.981 23.4526C114.057 23.4572 114.12 23.4607 114.167 23.4644C114.191 23.4662 114.21 23.4679 114.224 23.4692C114.237 23.4704 114.243 23.471 114.245 23.4712C114.481 23.505 115.198 23.7423 115.687 24.4351C115.807 24.6045 115.967 24.8349 116.152 25.103C115.739 24.7296 115.294 24.3996 114.812 24.1509C114.555 24.0181 114.171 23.9019 113.739 23.7964C113.294 23.688 112.756 23.5811 112.165 23.478C111.871 23.4269 111.564 23.3763 111.246 23.3267C111.415 23.3336 111.59 23.3408 111.765 23.3481Z" fill="#CCCCCC" stroke="#0D1416"/>
<path d="M108.347 36.7939C108.167 37.7419 108.069 38.5267 108.015 39.1387C107.977 39.5848 107.963 39.9388 107.959 40.1973L98.2605 40.6348C99.5247 40.4723 100.717 40.3181 101.768 40.1797C102.896 40.0312 103.862 39.9008 104.581 39.7998C105.283 39.7012 105.783 39.6262 105.948 39.5869C106.228 39.5202 106.477 39.312 106.668 39.123C106.877 38.9158 107.098 38.6479 107.318 38.3506C107.652 37.8994 108.006 37.3533 108.347 36.7939Z" fill="#CCCCCC" stroke="#0D1416"/>
<path d="M107.819 27.1304C107.541 27.2868 107.296 27.4285 107.108 27.5435C107.014 27.6007 106.93 27.6531 106.862 27.6997C106.82 27.7283 106.77 27.7655 106.722 27.8052C106.795 27.6636 106.857 27.5444 106.906 27.4497C106.917 27.4283 106.926 27.4079 106.936 27.3892L107.877 27.0972C107.858 27.1082 107.838 27.1195 107.819 27.1304Z" fill="#CCCCCC" stroke="#0D1416"/>
</svg>
