<svg width="150" height="77" viewBox="0 0 150 77" fill="none" xmlns="http://www.w3.org/2000/svg">
<path d="M109.189 26.6334C86.4183 18.0341 63.8273 17.1421 41.2175 27.7981C42.4178 28.7552 43.7751 28.8785 44.92 29.4486C46.0928 30.0324 47.4263 30.2817 48.8754 31.2918C43.0749 30.7495 37.6915 31.071 32.3125 31.2855C26.6349 31.5119 20.9652 31.9305 15.2887 32.1908C11.041 32.3855 6.81891 32.1525 2.70662 30.925C1.8476 30.6685 0.963757 30.4576 0 29.6249C1.35456 29.7703 2.41596 29.9533 3.48196 29.9877C13.0052 30.2946 22.2705 28.8124 31.3529 25.9931C38.9692 23.6287 46.4846 20.9465 54.2978 19.2128C70.744 15.5635 86.7698 16.7069 102.395 23.0534C104.748 24.0088 107.024 25.1291 109.189 26.6334Z" fill="#0D1416"/>
<path d="M76.2046 30.0373C83.7346 29.5146 91.2656 29.0037 98.7946 28.4658C105.474 27.9886 112.148 27.4388 118.846 27.2612C125.993 27.0718 133.097 27.3247 140.075 29.0683C142.371 29.6417 144.6 30.4173 146.626 31.6558C149.614 33.4823 150.718 36.287 149.532 39.2624C149.222 34.4953 146.012 32.7704 142.182 31.7629C137.167 30.4436 132.019 30.2343 126.872 30.2309C111.545 30.2205 96.2184 30.2708 80.8913 30.2965C79.3379 30.2992 77.7845 30.2969 76.2311 30.2969C76.2223 30.2105 76.2134 30.1239 76.2046 30.0373Z" fill="#0D1416"/>
<path d="M42.4845 14.5597C43.1844 14.9781 43.1889 15.376 42.5323 15.8876C40.3461 17.5902 38.4017 19.5538 36.5059 21.5679C36.0349 22.0682 35.6005 22.3004 34.8836 21.7684C33.9522 21.0771 32.8952 20.5376 31.8465 20.0259C30.745 19.4885 30.8212 18.9266 31.6201 18.1842C32.1981 17.6471 32.7268 17.0566 33.2774 16.4902C34.691 15.5072 35.7489 14.1316 37.0874 13.0589C38.4363 11.9777 39.0445 11.9428 40.4859 12.9738C41.1811 13.4708 41.6318 14.2691 42.4845 14.5597Z" fill="#F15A0B"/>
<path d="M94.7378 14.2776C94.4488 14.1146 94.2086 13.9991 93.9889 13.8524C92.3427 12.7513 90.6393 11.7452 88.8482 10.9033C88.0224 10.515 87.8947 10.1083 88.3854 9.3161C89.1157 8.13743 89.7546 6.89846 90.373 5.65553C90.7469 4.9046 91.2331 4.78337 91.9068 5.18357C94.1127 6.49389 96.3145 7.81069 98.5164 9.12727C99.081 9.46487 99.2503 9.87049 98.728 10.3984C97.5625 11.5766 96.4051 12.7628 95.2358 13.9371C95.0946 14.0792 94.9007 14.1683 94.7378 14.2776Z" fill="#F98924"/>
<path d="M79.1006 6.93003C79.5917 5.04905 80.0038 3.49836 80.399 1.94349C80.5548 1.33027 80.9477 1.22344 81.4921 1.35614C83.9922 1.9654 86.404 2.84716 88.8193 3.71974C89.5272 3.97554 89.5041 4.42852 89.2195 4.98583C88.514 6.36668 87.8007 7.74357 87.1154 9.13422C86.8553 9.66211 86.5667 9.77832 85.976 9.57551C83.9554 8.88133 81.9092 8.26144 79.8715 7.61691C79.372 7.45876 78.8898 7.30164 79.1006 6.93003Z" fill="#F98E2C"/>
<path d="M68.6136 3.38564C68.7498 6.46741 68.7484 6.45218 65.6964 6.75744C64.4754 6.8795 63.2479 7.01616 62.0517 7.27698C61.2528 7.45099 60.873 7.30222 60.6942 6.47931C60.3769 5.01833 60.0272 3.56112 59.6084 2.12644C59.3607 1.27765 59.7762 1.1101 60.4497 0.985532C62.6583 0.576785 64.8808 0.302412 67.1171 0.0918836C68.2432 -0.0141109 68.7068 0.331413 68.6221 1.46313C68.5745 2.10077 68.6136 2.74467 68.6136 3.38564Z" fill="#F79031"/>
<path d="M105.802 15.7548C106.139 16.0876 106.499 16.4006 106.81 16.7565C108.894 19.1418 108.827 19.0392 106.045 20.7207C104.382 21.7258 103.254 21.5939 101.919 20.198C100.422 18.6311 98.681 17.2961 97.0462 15.8602C96.2562 14.6191 97.2924 14.0674 98.0488 13.6358C100.407 12.2897 102.418 12.6484 104.41 14.5457C104.852 14.9665 105.063 15.6732 105.802 15.7548Z" fill="#F15D0C"/>
<path d="M47.5039 5.49463C47.9748 5.55263 48.1121 5.93905 48.2961 6.24285C49.0145 7.42861 49.6722 8.65256 50.4248 9.81558C50.9136 10.5713 50.6653 10.9026 49.957 11.2895C48.3666 12.1579 46.7972 13.0732 45.2776 14.0589C44.6904 14.4397 44.2975 14.5446 43.7619 14.0357C42.639 12.9689 41.5335 11.8908 40.5585 10.6827C40.2067 10.2471 40.0254 9.8596 40.6196 9.50489C42.7721 8.22044 44.9277 6.94141 47.0847 5.66489C47.2191 5.58539 47.3772 5.54512 47.5039 5.49463Z" fill="#F88825"/>
<path d="M58.7696 4.2067C60.0148 7.41491 60.0108 7.40281 56.8185 8.4373C55.7072 8.79743 54.5899 9.16758 53.5318 9.65582C52.523 10.1213 51.7516 10.3248 51.3698 8.94724C51.2319 8.4494 50.9139 8.00122 50.6781 7.5305C49.846 4.7832 49.8506 4.79301 52.4869 3.57261C53.8465 2.94332 55.317 2.66331 56.7181 2.16651C57.3691 1.93574 57.8859 2.07032 58.0833 2.81833C58.2183 3.32911 58.5317 3.74871 58.7696 4.2067Z" fill="#F98C27"/>
<path d="M78.3941 4.34748C78.3503 4.76687 78.319 5.18793 78.2604 5.60523C78.0945 6.7889 77.652 7.39253 76.2638 6.93684C75.2815 6.61426 74.1808 6.6514 73.133 6.52788C73.2108 6.43065 73.3012 6.41875 73.404 6.41938C73.5006 6.42001 73.5019 6.28814 73.4466 6.29899C72.8655 6.41312 72.2784 6.28209 71.7008 6.34907C70.6196 6.47426 70.268 5.94407 70.3264 4.94526C70.3638 4.30763 70.3306 3.66561 70.3319 3.02547C70.3367 0.677109 70.4909 0.536062 72.9058 0.552337C73.9186 0.559222 74.9168 0.735113 75.9343 0.731149C78.2654 0.721968 78.7474 1.28491 78.5373 3.5736C78.5133 3.83775 78.5394 4.10732 78.3941 4.34748Z" fill="#FB8F2A"/>
<path d="M78.3943 4.34733C78.3841 3.91939 78.3351 3.48811 78.3705 3.06392C78.4882 1.662 77.693 1.11262 76.4593 1.06818C74.9086 1.01247 73.3539 1.06442 71.8022 1.02666C71.002 1.00725 70.5716 1.27934 70.6507 2.13168C70.6557 2.18467 70.6442 2.23934 70.6505 2.29212C70.7978 3.54194 70.0349 5.22784 71.0342 5.93705C71.914 6.56154 73.4967 6.1964 74.8587 6.27339C74.2687 6.68652 73.6732 6.40859 73.1342 6.52773C69.9863 6.66857 69.9863 6.66857 69.9961 3.66984C69.9963 3.61643 69.9965 3.56302 69.9965 3.5096C69.9993 -0.21919 69.9995 -0.222533 73.6782 0.165974C75.058 0.311612 76.4324 0.547806 77.8153 0.610401C78.9775 0.663189 79.3128 1.14642 78.9994 2.2095C78.7901 2.92016 78.5955 3.63458 78.3943 4.34733Z" fill="#E19D57"/>
<path d="M105.801 15.7544C104.958 16.2525 104.688 15.3997 104.301 15.0367C102.209 13.0722 100.479 12.7495 98.016 14.0193C97.2991 14.3888 96.9371 15.0183 97.0456 15.8596C96.1338 15.4611 96.0111 15.0651 96.7816 14.2599C100.469 10.4071 100.452 10.3781 104.348 14.0688C104.884 14.5766 105.319 15.19 105.801 15.7544Z" fill="#E28436"/>
<path d="M106.027 22.4154C106.174 22.1438 106.187 22.0851 106.223 22.0586C109.344 19.7793 110.779 20.4737 111.634 24.7703C109.561 24.4556 108.034 23.0201 106.027 22.4154Z" fill="#DC511F"/>
<path d="M27.0811 24.7932C27.2985 24.3296 27.413 24.0367 27.5662 23.7658C29.5419 20.2714 29.8738 20.196 33.206 22.4636C32.4496 23.1357 28.937 24.5055 27.0811 24.7932Z" fill="#DE5819"/>
<path d="M58.7698 4.20636C58.7606 4.25873 58.755 4.31214 58.7412 4.36347C58.7275 4.41459 58.7126 4.5016 58.6866 4.50619C58.6139 4.5187 58.4804 4.5185 58.4673 4.48512C58.1674 3.72479 57.9953 2.57033 57.2552 2.46725C56.3401 2.33977 55.3062 2.79776 54.3729 3.13765C53.2988 3.52887 52.3204 4.1229 51.166 4.38225C50.4396 4.54541 49.6559 5.13694 50.4517 6.14702C50.777 6.55994 50.6979 7.05339 50.6783 7.53057C48.6346 4.16233 48.595 4.88489 51.8351 3.48818C53.0524 2.96342 54.3406 2.59328 55.614 2.21166C58.2463 1.42296 58.2511 1.43923 58.7698 4.20636Z" fill="#DC9E5A"/>
<path d="M42.4845 14.5595C41.3324 14.5826 40.8362 13.4839 39.9394 13.0298C38.9636 12.5358 38.3821 12.6718 37.4984 13.2034C35.9467 14.1369 35.043 15.8652 33.2778 16.4895C34.6497 14.7675 36.2563 13.275 37.8594 11.7761C38.5536 11.1269 39.1178 11.1395 39.7702 11.8422C40.6407 12.7797 41.5767 13.6566 42.4845 14.5595Z" fill="#DD8F4B"/>
<path d="M19.5089 60.1962H11.5901L9.65575 63.944H4.24561L15.6704 42.7266H21.6548L25.5839 63.944H20.1133L19.5089 60.1962ZM18.9044 56.267L17.6652 48.4087L13.6151 56.267H18.9044Z" fill="#0D1416"/>
<path d="M36.7459 42.7266L34.5093 55.3905C34.4287 55.9144 34.3884 56.2771 34.3884 56.4786C34.3884 57.4055 34.6503 58.1208 35.1742 58.6245C35.6981 59.1081 36.4739 59.3499 37.5015 59.3499C38.7105 59.3499 39.6978 59.0074 40.4635 58.3223C41.2291 57.6372 41.7228 56.6599 41.9445 55.3905L44.181 42.7266H49.3494L47.1128 55.3905C46.7703 57.3047 46.0852 58.9268 45.0575 60.2566C44.0501 61.5663 42.8109 62.5436 41.34 63.1884C39.8892 63.8332 38.3075 64.1556 36.5948 64.1556C34.3783 64.1556 32.585 63.5813 31.2148 62.4328C29.8648 61.2842 29.1898 59.6219 29.1898 57.4458C29.1898 56.801 29.2503 56.1159 29.3712 55.3905L31.5775 42.7266H36.7459Z" fill="#0D1416"/>
<path d="M68.2419 42.7266L67.5467 46.8068H61.8948L58.8724 63.944H53.704L56.7265 46.8068H51.1048L51.8301 42.7266H68.2419Z" fill="#0D1416"/>
<path d="M77.1828 64.1556C75.3895 64.1556 73.8078 63.7828 72.4376 63.0373C71.0876 62.2917 70.0399 61.2439 69.2943 59.8939C68.5488 58.5439 68.176 56.9924 68.176 55.2394C68.176 52.761 68.71 50.5546 69.7779 48.6203C70.8458 46.6658 72.3268 45.1445 74.2209 44.0564C76.1351 42.9684 78.3011 42.4243 80.7191 42.4243C82.5325 42.4243 84.1244 42.7971 85.4945 43.5426C86.8647 44.268 87.9225 45.3057 88.6681 46.6557C89.4136 47.9856 89.7864 49.5169 89.7864 51.2498C89.7864 53.7282 89.2524 55.9547 88.1845 57.9294C87.1166 59.8839 85.6255 61.4152 83.7113 62.5234C81.7971 63.6115 79.6209 64.1556 77.1828 64.1556ZM77.9687 59.3801C79.2985 59.3801 80.4672 59.0376 81.4747 58.3525C82.4822 57.6674 83.2579 56.7506 83.802 55.6021C84.3661 54.4334 84.6482 53.1741 84.6482 51.8241C84.6482 50.3733 84.2453 49.2348 83.4393 48.4087C82.6333 47.5826 81.5049 47.1695 80.0542 47.1695C78.7243 47.1695 77.5455 47.5121 76.5179 48.1971C75.5104 48.8822 74.7246 49.799 74.1604 50.9476C73.6164 52.0759 73.3444 53.3252 73.3444 54.6954C73.3444 56.1461 73.7474 57.2946 74.5533 58.1409C75.3593 58.9671 76.4978 59.3801 77.9687 59.3801Z" fill="#0D1416"/>
<path d="M115.379 42.7266L114.653 46.8068H106.009L105.223 51.3707H111.691L110.966 55.2998H104.498L102.987 63.944H97.8185L101.566 42.7266H115.379Z" fill="#F15A0B"/>
<path d="M123.264 42.7266L119.516 63.944H114.347L118.095 42.7266H123.264Z" fill="#F15A0B"/>
<path d="M137.104 53.4259L142.272 63.944H136.258L133.084 57.4458L128.127 63.944H122.264L130.968 53.1539L125.86 42.7266H131.875L135.018 49.1341L139.885 42.7266H145.748L137.104 53.4259Z" fill="#F15A0B"/>
</svg>
