<svg width="123" height="85" viewBox="0 0 123 85" fill="none" xmlns="http://www.w3.org/2000/svg">
<g clip-path="url(#clip0_54_571)">
<path d="M53.9125 8.04866C59.8507 8.04866 64.8524 13.0427 66.4 19.8624C70.2069 20.031 74.123 21.2727 78.1211 23.5705C77.7305 10.4856 67.0404 0 53.9125 0C40.5367 0 29.6934 10.8861 29.6934 24.3146C29.6934 34.347 35.7429 42.9564 44.3794 46.6708C47.3044 47.9315 50.5297 48.6292 53.9125 48.6292C55.4873 48.6292 57.0286 48.4775 58.5215 48.1887C60.1594 47.8724 61.7384 47.3897 63.2398 46.7594C62.6497 45.6316 61.9946 44.4384 61.2891 43.2389C60.426 41.7653 59.605 40.4794 58.8302 39.3705C57.3141 40.1505 55.6532 40.5806 53.9125 40.5806C46.7437 40.5806 40.9336 33.2972 40.9336 24.3146C40.9336 15.3321 46.7437 8.04866 53.9125 8.04866Z" fill="#FF5100"/>
<path d="M69.8101 52.8475C70.1082 52.9466 58.0953 24.8395 50.3512 30.8201C50.3512 30.8201 47.7706 24.7404 57.2008 26.0348C57.2008 26.0348 69.0163 14.7713 89.4684 37.6967L85 42.3809C85 42.3809 73.2369 31.5158 65.8393 28.3263C65.8393 28.3263 82.0225 45.4692 82.8162 54.2409L69.8101 52.8475Z" fill="#FF5100"/>
<path d="M17.59 72.8029C17.59 75.3832 16.6556 77.5292 14.7847 79.2452L17.3947 82.3314L14.4676 85.0002L11.1982 81.1551C10.4654 81.368 9.66118 81.4734 8.78346 81.4734C6.2952 81.4734 4.2101 80.6365 2.52606 78.9627C0.84202 77.2889 0 75.2356 0 72.8029C0 70.3701 0.84202 68.3169 2.52396 66.6431C4.208 64.9692 6.2931 64.1323 8.78136 64.1323C11.2864 64.1323 13.3799 64.9692 15.064 66.6431C16.748 68.3169 17.59 70.3701 17.59 72.8029ZM5.48888 69.3878C4.61116 70.3259 4.1723 71.4663 4.1723 72.805C4.1723 74.1436 4.61116 75.282 5.48888 76.2222C6.36659 77.1624 7.46479 77.6304 8.78136 77.6304C10.0979 77.6304 11.1961 77.1624 12.0739 76.2222C12.9516 75.2841 13.3904 74.1457 13.3904 72.805C13.3904 71.4663 12.9516 70.328 12.0739 69.3878C11.1961 68.4497 10.0979 67.9796 8.78136 67.9796C7.46479 67.9796 6.36659 68.4476 5.48888 69.3878Z" fill="#0D1416"/>
<path d="M34.9827 72.5585C35.9591 72.7714 36.7066 73.2436 37.2274 73.9793C37.7481 74.7129 38.0085 75.5562 38.0085 76.5027C38.0085 77.9067 37.4794 79.0303 36.4232 79.8693C35.367 80.7104 33.9181 81.1299 32.0808 81.1299H23.396V64.4761H31.5936C33.3826 64.4761 34.7769 64.8724 35.7785 65.6629C36.778 66.4556 37.2778 67.537 37.2778 68.9094C37.2778 69.7104 37.0699 70.4567 36.6562 71.1503C36.2405 71.8438 35.6819 72.3139 34.9827 72.5585ZM27.5179 67.8553V71.2599H30.9343C31.6986 71.2599 32.2929 71.0997 32.7149 70.7814C33.137 70.463 33.3491 70.0267 33.3491 69.4701C33.3491 68.3929 32.5448 67.8532 30.9343 67.8532H27.5179V67.8553ZM27.5179 77.7022H31.518C32.3306 77.7022 32.9459 77.5441 33.3595 77.2236C33.7732 76.9053 33.9811 76.4858 33.9811 75.963C33.9811 74.9343 33.1916 74.4199 31.6146 74.4199H27.5158V77.7022H27.5179Z" fill="#0D1416"/>
<path d="M50.3028 76.3065H47.741V81.1319H43.6191V64.478H50.8635C52.9465 64.478 54.6116 65.0051 55.8652 66.057C57.1167 67.111 57.7445 68.534 57.7445 70.3301C57.7445 71.4726 57.4673 72.493 56.9151 73.391C56.3628 74.2891 55.5817 74.991 54.5738 75.497L58.8427 81.1298H53.8914L50.3028 76.3065ZM47.741 72.5836H50.79C51.6026 72.5836 52.2787 72.3749 52.8142 71.9596C53.3517 71.5443 53.6184 71.0004 53.6184 70.3301C53.6184 69.6766 53.3496 69.1474 52.8142 68.7385C52.2766 68.3316 51.6026 68.1271 50.79 68.1271H47.741V72.5836Z" fill="#0D1416"/>
<path d="M75.3576 78.265H68.3317L67.2335 81.1299H62.8428L69.8939 64.377H73.8457L80.8717 81.1299H76.481L75.3576 78.265ZM73.9906 74.7382L71.8446 69.2024L69.6986 74.7382H73.9906Z" fill="#0D1416"/>
<path d="M101.166 64.4761V81.1299H97.9954L90.0413 71.9935V81.1299H85.9194V64.4761H89.067L97.0694 73.857V64.4761H101.166Z" fill="#0D1416"/>
<path d="M107.388 64.4761H114.049C116.667 64.4761 118.813 65.2476 120.489 66.7907C122.164 68.3339 123.002 70.3218 123.002 72.7545C123.002 75.221 122.164 77.2321 120.489 78.7921C118.813 80.352 116.667 81.132 114.049 81.132H107.388V64.4761ZM111.51 77.4071H114.047C115.397 77.4071 116.527 76.9622 117.438 76.0726C118.349 75.183 118.805 74.0763 118.805 72.7545C118.805 71.4644 118.349 70.3829 117.438 69.5102C116.527 68.6374 115.397 68.1989 114.047 68.1989H111.51V77.4071Z" fill="#0D1416"/>
</g>
<defs>
<clipPath id="clip0_54_571">
<rect width="123" height="85" fill="white"/>
</clipPath>
</defs>
</svg>
