<svg width="108" height="85" viewBox="0 0 108 85" fill="none" xmlns="http://www.w3.org/2000/svg">
<g clip-path="url(#clip0_54_522)">
<path fill-rule="evenodd" clip-rule="evenodd" d="M17.01 9.95412C16.6904 15.076 16.6033 20.0385 16.843 24.8344C15.7826 25.001 14.7222 25.1966 13.6618 25.4139C13.3713 19.9805 13.4947 14.3515 13.8869 8.54144L13.9668 7.36783L15.0345 7.02733C22.6896 4.58593 29.5241 2.81827 35.9009 1.66639C42.2778 0.514507 48.1826 -0.0215872 54.0002 0.000146363C59.8178 -0.0215872 65.7299 0.514507 72.1067 1.66639C78.4836 2.81827 85.318 4.58593 92.9659 7.02733L94.0263 7.36783L94.1062 8.54144C94.4403 13.4894 94.5855 18.3071 94.4403 22.987C94.0045 22.8928 93.5833 22.7769 93.1838 22.6465C93.0313 22.5958 92.8933 22.5668 92.748 22.5596C92.5519 22.0959 92.167 21.7192 91.6586 21.5381C91.5278 21.4946 91.3971 21.4439 91.2736 21.3932C91.339 17.6768 91.2301 13.8589 90.9904 9.96137C83.88 7.73005 77.5104 6.10004 71.5838 5.02785C65.3594 3.90494 59.6217 3.38334 54.0002 3.40507C48.3859 3.38334 42.6409 3.90494 36.4166 5.02785C30.49 6.09279 24.1204 7.72281 17.01 9.95412ZM30.2794 62.6798C35.8791 69.4462 43.5779 75.633 54.0002 81.204C64.4225 75.633 72.1212 69.4389 77.721 62.6798H81.8972C75.789 70.8081 67.0299 78.1541 54.712 84.6307L54.0075 85.0074L53.303 84.6307C40.9777 78.1468 32.2186 70.8081 26.1177 62.6798H30.2794Z" fill="#0D1416"/>
<path fill-rule="evenodd" clip-rule="evenodd" d="M54.0001 84.5217L54.5085 84.2536C64.9962 78.7333 74.4017 71.8293 81.3524 62.6794H78.2656C71.8234 70.547 63.4492 76.6324 54.1962 81.5804C54.0655 81.6529 53.9202 81.6529 53.7895 81.5804C44.5438 76.6324 36.1623 70.547 29.7201 62.6794H26.6334C33.5913 71.8293 42.9895 78.7333 53.4772 84.2536L54.0001 84.5217ZM94.0117 22.8853C94.157 18.1039 94.0044 13.308 93.6776 8.57009L93.6195 7.68626L92.8351 7.4327C86.0225 5.2521 79.0718 3.36128 72.0268 2.08624C66.0566 1.00681 60.0647 0.427246 53.9929 0.427246C47.9283 0.427246 41.9291 1.00681 35.9662 2.08624C28.9212 3.36128 21.9705 5.25934 15.1579 7.4327L14.3808 7.67902L14.3227 8.56285C13.945 14.1122 13.7925 19.7339 14.0975 25.3194C14.8674 25.1601 15.6445 25.0224 16.4217 24.892C16.1675 19.9005 16.2837 14.8728 16.5887 9.91757C16.596 9.73646 16.7122 9.59157 16.8865 9.54086C23.2634 7.54137 29.7564 5.79544 36.3439 4.60009C42.1906 3.54964 48.059 2.97007 54.0001 2.97007C59.9412 2.97007 65.8169 3.54239 71.6564 4.60009C78.2438 5.78819 84.7369 7.54137 91.1138 9.5481C91.2881 9.59881 91.4043 9.7437 91.4116 9.92482C91.6512 13.7717 91.7674 17.662 91.6948 21.545C92.1814 21.7334 92.5518 22.0956 92.7407 22.552C92.8859 22.5665 93.0312 22.5955 93.1765 22.639C93.4524 22.7331 93.7357 22.8128 94.0117 22.8853Z" fill="#0D1416"/>
<path fill-rule="evenodd" clip-rule="evenodd" d="M32.4146 62.5493C32.6324 62.7377 43.338 72.0469 54 77.4368C64.6548 72.0469 75.3676 62.7377 75.5855 62.5493C69.6589 69.3954 62.1926 74.7998 54 79.2624C45.8147 74.7998 38.3411 69.3954 32.4146 62.5493Z" fill="#D80B0B"/>
<path fill-rule="evenodd" clip-rule="evenodd" d="M27.6211 8.69346C43.3381 6.04921 64.6694 6.04921 80.3791 8.69346C77.365 7.92554 74.3291 7.2518 71.2714 6.70122C65.5555 5.66525 59.8105 5.10742 53.9928 5.10742C48.1752 5.10742 42.4375 5.67249 36.7143 6.70122C33.6711 7.2518 30.6352 7.92554 27.6211 8.69346Z" fill="#D80B0B"/>
<path d="M92.5374 47.1255H85.9499C84.5046 47.1255 83.7783 47.7775 83.7783 49.0888V56.2174H85.3616V52.9936H93.133V56.2174H94.7163V49.0888C94.7163 47.7775 93.99 47.1255 92.5374 47.1255ZM93.133 51.9648H85.3616V49.4365C85.3616 48.6903 85.7538 48.3136 86.5455 48.3136H91.9346C92.7335 48.3136 93.133 48.6903 93.133 49.4365V51.9648Z" fill="#0D1416"/>
<path d="M105.247 52.639C106.787 52.6172 107.557 51.8783 107.557 50.4222V49.3355C107.557 47.8576 106.751 47.1187 105.146 47.1187H96.6987V56.2178H98.2821V52.6317H103.461L106.242 56.2178H108V56.1453L105.247 52.639ZM98.2821 51.603V48.2923H104.666C105.538 48.2923 105.974 48.7124 105.974 49.5601V50.3352C105.974 51.1828 105.538 51.603 104.666 51.603H98.2821Z" fill="#0D1416"/>
<path d="M71.8306 49.0892V54.2545C71.8306 55.5658 72.5569 56.2178 74.0167 56.2178H82.0495V55.0224H74.6123C73.8134 55.0224 73.4139 54.6457 73.4139 53.8995V49.4369C73.4139 48.6907 73.8134 48.314 74.6123 48.314H82.0495V47.1187H74.0095C72.5569 47.1259 71.8306 47.7779 71.8306 49.0892Z" fill="#0D1416"/>
<path d="M28.8409 47.5024H23.3429C21.8758 47.5024 21.3892 48.3718 21.3892 49.9873V53.6241C21.3892 55.4207 21.883 56.2176 23.3429 56.2176H30.6494V54.5151H25.638C25.1586 54.5151 24.9044 54.1964 24.9044 53.6241V52.8127H30.7947V49.9873C30.7947 48.379 30.3008 47.5024 28.8409 47.5024ZM27.3593 51.103H24.8972V49.9004C24.8972 49.4005 25.0279 49.2121 25.4346 49.2121H26.8218C27.2213 49.2121 27.3593 49.4005 27.3593 49.9004V51.103Z" fill="#0D1416"/>
<path d="M18.0269 47.5024H15.1943C14.7949 47.5024 14.6133 47.8936 14.4027 48.3573H14.3736V44.3511H10.8511V56.2176H14.3736V49.8424C14.3736 49.415 14.5697 49.2121 14.853 49.2121H16.3128C16.6905 49.2121 16.8212 49.4512 16.8212 49.8424V56.2176H20.3365V50.5814C20.3437 48.7485 19.6392 47.5024 18.0269 47.5024Z" fill="#0D1416"/>
<path d="M0 46.3216H3.01412V56.2176H6.65286V46.3216H9.65972V44.3511H0V46.3216Z" fill="#0D1416"/>
<path d="M32.0586 56.2176H35.6973V51.0667H39.9316V49.0962H35.6973V46.3216H40.3238V44.3511H32.0586V56.2176Z" fill="#0D1416"/>
<path d="M65.6278 53.8629V49.2119H68.4313V47.5095H65.6278V45.6187H62.1052V47.5095H60.6309V49.2119H62.1052V53.7325C62.1052 55.2756 62.8969 56.2174 64.0154 56.2174H68.7871V54.5149H66.1943C65.7948 54.5149 65.6278 54.3483 65.6278 53.8629Z" fill="#0D1416"/>
<path d="M51.1821 49.6757V51.342C51.1821 52.6605 51.6905 53.5081 52.9906 53.5081H56.179C56.4913 53.5081 56.6148 53.6602 56.6148 53.9138V54.1891C56.6148 54.4499 56.5131 54.6165 56.179 54.6165H51.1821V56.2103H57.8786C59.1496 56.2103 59.8904 55.225 59.8904 53.9138V52.2837C59.8904 50.7262 59.2295 50.0959 58.0238 50.0959H54.9225C54.6248 50.0959 54.465 50.0235 54.465 49.7627V49.4439C54.465 49.2193 54.5667 49.0889 54.9225 49.0889H59.8904V47.4951H53.3247C52.1481 47.5024 51.1821 48.3427 51.1821 49.6757Z" fill="#0D1416"/>
<path d="M47.8264 47.5024H41.1154V49.2049H46.0833C46.4391 49.2049 46.6207 49.4295 46.6207 49.7627V50.3206H42.7278C41.326 50.3206 40.7886 51.0595 40.7886 52.8634V53.6603C40.7886 55.5149 41.3696 56.2176 42.7714 56.2176H45.4223C46.2285 56.2176 46.6135 56.0148 46.7515 55.2541H46.7805V56.2176H50.136V50.6176C50.136 48.2269 49.2717 47.5024 47.8264 47.5024ZM46.6135 53.4574C46.6135 54.2543 46.5408 54.5151 45.9743 54.5151H45.0229C44.4564 54.5151 44.3038 54.3123 44.3038 53.8124V52.7547C44.3038 52.2548 44.4346 52.0303 45.0592 52.0303H46.6135V53.4574Z" fill="#0D1416"/>
<path fill-rule="evenodd" clip-rule="evenodd" d="M1.80127 37.3749C4.32877 31.2822 19.5156 29.5725 29.2988 29.1886C48.8288 28.4279 62.0765 30.4853 83.277 26.4429C62.8391 21.3572 42.5754 25.4939 36.9612 27.7542C52.4385 20.4372 72.5351 20.5748 88.6952 26.03C89.2036 26.2038 90.5109 26.7254 91.0266 26.9138C67.8432 33.0499 51.4508 30.7824 29.2552 31.1808C21.1788 31.3185 8.23624 32.3834 1.80127 37.3749Z" fill="#0D1416"/>
<path fill-rule="evenodd" clip-rule="evenodd" d="M70.4071 32.2599C77.2706 31.4413 84.8023 30.1156 92.6027 28.0291C92.6027 28.0291 99.793 30.3909 105.414 26.9497C105.414 26.9497 106.446 29.3549 104.971 31.7166C104.971 31.7166 107.187 35.2519 105.661 39.8739C105.661 39.8739 88.6153 31.4703 72.8474 41.3953C72.8474 41.3953 84.0324 30.927 102.705 35.9402C102.705 35.9402 103.199 33.6292 101.914 31.3182C101.914 31.3182 99.4008 32.202 92.5082 31.4196C89.9226 31.9122 73.6028 33.9044 73.6028 33.9044C71.9541 38.2222 67.6617 41.3301 63.4201 41.446H34.5645C56.9125 39.6276 61.9167 40.1927 65.0834 38.838C67.6472 37.744 68.8819 35.8387 69.6154 34.2305L43.3163 35.3823L70.4071 32.2599Z" fill="#FF5100"/>
<path fill-rule="evenodd" clip-rule="evenodd" d="M2.4624 37.7151L4.4234 41.0693C7.52468 41.0693 10.4662 41.504 13.5674 41.504C17.4313 34.0494 27.1056 34.1943 31.1075 41.7503C29.2118 31.876 16.5017 32.1513 12.5143 39.6784H4.95359L2.4624 37.7151Z" fill="#0D1416"/>
<path fill-rule="evenodd" clip-rule="evenodd" d="M11.2723 34.3462L8.97 36.0342L4.14014 37.0774L9.76166 37.1571L11.2723 34.3462Z" fill="#FF5100"/>
</g>
<defs>
<clipPath id="clip0_54_522">
<rect width="108" height="85" fill="white"/>
</clipPath>
</defs>
</svg>
