<svg width="150" height="50" viewBox="0 0 150 50" fill="none" xmlns="http://www.w3.org/2000/svg">
<g clip-path="url(#clip0_54_509)">
<path d="M37.8295 41.5027C37.9998 40.9303 39.322 40.8904 39.8062 41.4172C40.7123 42.4042 41.4916 45.3843 42.3239 46.6775C42.4431 46.862 42.3031 47.0179 42.7438 46.9209C43.4399 45.8845 44.6052 42.06 45.3013 41.4076C45.8649 40.8789 47.1758 40.8523 47.2969 41.8717C47.5674 44.1424 47.0793 46.959 47.2798 49.2944C47.0869 50.3156 45.7723 49.8668 45.7723 49.7755V44.4505C45.2218 44.3459 45.4696 44.6103 45.3448 44.8689C44.7716 46.048 43.9639 48.6097 43.2943 49.4712C42.9595 49.901 42.496 49.8326 42.0194 49.7432L39.5301 44.6407V49.4903C39.5301 50.0931 37.8276 50.0931 37.8276 49.4903V41.5027H37.8295Z" fill="#0D1416"/>
<path d="M105.979 47.7331C106.929 46.7461 107.266 47.8587 107.956 48.2105C108.845 48.665 110.986 48.8077 111.191 47.5449C111.408 46.1889 108.412 46.1737 107.44 45.6887C106.201 45.0706 105.692 43.7394 106.331 42.4785C107.547 40.0803 112.791 41.1777 112.517 42.6154C112.24 44.0779 110.179 42.3758 109.235 42.3872C108.23 42.3986 106.987 43.4446 108.126 44.2376C109.265 45.0307 112.403 44.7302 112.728 46.8393C113.239 50.1617 108.713 50.6961 106.588 49.2051C106.146 48.8951 105.467 48.2675 105.979 47.7331Z" fill="#0D1416"/>
<path d="M146.883 43.4957C133.583 38.5263 119.627 35.6109 105.548 33.8004C94.2591 32.3474 81.9468 31.5677 70.5539 32.0888C63.4775 32.2504 56.4011 32.6878 49.3682 33.42C42.2956 34.156 35.3327 35.28 28.3717 36.6531C19.9921 38.3076 11.6937 40.314 3.6829 43.3055L0 44.8289C10.0878 41.7556 20.3969 39.2414 30.8308 37.604C36.9746 36.6397 43.4022 35.8391 49.5574 35.3218C53.5259 34.989 57.7876 34.7265 61.7505 34.5535C69.0728 34.234 76.448 34.4223 83.7949 34.3709C90.8902 34.544 97.7244 34.8007 104.791 35.512C120.143 37.0562 135.314 40.179 149.998 44.8289L146.883 43.4957ZM67.8527 32.2751C67.8035 32.2904 67.76 32.3056 67.7222 32.3246C67.7203 32.3113 67.7165 32.2961 67.7165 32.2808C67.7638 32.2789 67.8092 32.277 67.8527 32.2751Z" fill="#8A38F5"/>
<path d="M71.1212 42.7389V49.4902C71.1212 50.0208 69.4188 50.0208 69.4188 49.4902V42.7389C68.7794 42.6457 67.705 42.9176 67.1489 42.6438C66.6627 42.4042 66.5795 41.4114 67.0827 41.2441C67.4894 41.1071 72.6288 41.1223 73.3078 41.206C74.2423 41.3201 74.3766 42.2767 73.5764 42.64C72.9409 42.9252 71.8324 42.64 71.1212 42.7389Z" fill="#0D1416"/>
<path d="M72.6931 1.88654C67.6691 -1.46632 59.0757 0.819634 53.2345 0.129284C52.928 0.127382 52.6689 0.209159 52.5838 0.519151L52.3927 14.5924C50.8454 14.2691 49.3038 13.8945 47.7357 13.6662C46.7483 13.5217 45.5944 13.5711 44.6392 13.4513C44.1322 13.3886 43.5193 13.3619 43.2678 12.8333C41.624 9.12476 40.3472 5.19946 38.6183 1.53281C38.2986 0.85767 38.1775 0.239587 37.3661 0.129284C36.4732 0.00756886 32.3118 -0.0152526 31.4965 0.142596C31.2355 0.192043 31.0539 0.279525 30.9347 0.52866L24.1212 15.7468C23.9888 15.8951 23.7902 15.8704 23.6427 15.9218C21.5392 16.6673 19.224 16.8993 17.0222 17.8236C16.5606 18.0175 16.0461 18.1297 15.6924 18.5291C15.6905 19.596 16.0291 20.6078 16.2655 21.6271C16.3998 22.2091 16.4566 23.3064 16.6855 23.7705C16.8916 24.1888 17.3683 24.2269 17.5896 24.4798C17.7807 24.6966 19.4093 26.8571 19.2921 26.9503L17.0222 26.7639C16.4623 27.1747 24.1023 29.5785 24.5885 29.2324C24.0475 27.439 24.0721 25.3223 24.5885 23.5289C24.9592 22.2395 25.8842 21.184 26.2909 19.9174C25.3659 20.2902 25.3451 19.7634 25.2146 19.7291C24.9592 19.6626 24.6547 19.7634 24.3993 19.7272C23.3987 19.5846 18.1779 18.9951 17.7788 18.5862C19.7214 18.3884 21.5695 17.6847 23.4535 17.2549C28.1181 16.1918 33.6378 15.007 38.397 14.7826C40.3434 14.6913 42.6927 14.6932 44.6392 14.7826C44.9532 14.7978 45.2728 14.7617 45.5849 14.7826C47.7527 14.929 50.5995 15.3836 52.7729 15.9237C54.4678 16.344 56.8133 17.1636 58.4477 17.8255C59.4805 18.2438 60.8367 18.86 61.8525 19.3469C61.8998 19.3697 62.0435 19.655 62.2762 19.7672C63.1596 20.197 65.0909 21.34 65.9137 21.4427C67.949 21.6975 70.3721 20.7675 72.067 19.7272C73.2114 19.0236 73.6294 18.5919 74.526 17.6353C75.4643 16.633 75.8274 16.3097 76.4176 14.9728C78.521 10.2012 77.0362 4.78487 72.6931 1.88654ZM60.0877 7.40173L65.4011 7.27051C69.7649 6.49268 71.5619 11.54 68.1779 13.9306L68.0966 14.4003L67.7485 14.0599C65.3651 14.4916 62.8569 14.5354 60.222 14.1911L59.8172 14.4041C60.0877 13.4513 60.0441 12.4377 59.5845 11.5476C60.1236 10.0738 60.1368 8.45343 59.5845 6.98334L60.0877 7.40173Z" fill="#404040"/>
<path d="M100.913 23.1502H86.8211V18.2056V18.0154L99.8729 17.9203C100.189 17.7454 100.217 17.4905 100.259 17.1672C100.386 16.1821 100.382 13.1868 100.261 12.194C100.227 11.9126 100.174 11.9164 100.06 11.7376C100.005 11.652 99.9921 11.5094 99.8748 11.4542L86.8192 11.3572L86.8211 6.98122L100.701 6.92606C100.883 6.91655 101.386 6.60086 101.386 6.50577V0.420034C101.386 0.399115 101.123 0.134766 101.102 0.134766H80.106C79.8014 0.134766 79.6501 1.08566 79.6236 1.36142C79.3077 4.82839 79.6917 9.17398 79.8222 12.6866C79.8638 13.822 79.792 14.9725 79.8222 16.1098C79.7447 16.9618 79.8771 17.907 79.8222 18.7723C79.7504 19.4132 79.8374 20.193 79.8222 20.8643C79.7995 21.8741 79.8222 22.8973 79.8222 23.9072C79.8222 25.6017 79.6255 27.9294 79.8128 29.527C79.8355 29.719 79.8998 30.1831 80.106 30.1831H101.102C101.135 30.1831 101.435 29.8902 101.477 29.7989C101.657 29.4109 101.657 24.1164 101.477 23.7189C101.433 23.6257 100.955 23.1502 100.913 23.1502ZM80.0114 14.5903H80.0227C80.0209 14.596 80.019 14.6017 80.0171 14.6093C80.0152 14.6036 80.0133 14.5979 80.0114 14.5903Z" fill="#404040"/>
<path d="M131.811 28.9793C131.468 28.1996 128.699 24.3218 128.058 23.7208C127.131 21.9332 125.78 20.4212 124.653 18.7762C124.097 17.9641 123.486 17.1197 122.95 16.3039C122.623 15.8056 122.196 15.1856 122.194 14.5923C125.527 10.0907 128.714 5.44463 131.793 0.775737C131.767 0.665433 131.684 0.138637 131.652 0.138637H123.612C122.627 0.975425 118.615 8.57498 118.123 8.6967C117.854 8.76326 117.716 8.45327 117.575 8.30113L112.166 0.235628C111.786 0.0625653 105.44 0.0302348 104.689 0.129128C104.105 0.207101 103.709 0.467647 103.923 1.09143L113.494 14.5904C113.423 15.0905 113.006 15.8931 112.738 16.302C112.242 17.057 111.728 17.831 111.224 18.5841C110.674 19.4095 110.078 20.2235 109.522 21.0564C109.142 21.6251 108.765 22.1975 108.387 22.7681C106.94 24.9513 105.34 27.0433 103.987 29.2931C103.702 29.7419 104.061 30.0938 104.515 30.1793L111.979 30.0861C112.388 29.8998 115.257 25.1016 115.764 24.2876C116.294 23.4375 116.742 22.4543 117.278 21.6251C117.359 21.4977 117.675 21.3379 117.75 21.0545C117.915 21.1173 118.953 22.6425 119.169 22.9563C120.561 24.9817 121.912 27.7812 123.442 29.5955C123.654 29.8484 123.811 30.1394 124.187 30.1774C125.218 30.0557 131.65 30.4285 131.952 30.0044C132.194 29.6697 131.945 29.2836 131.811 28.9793Z" fill="#404040"/>
<path d="M58.2586 19.3467C57.2769 19.0196 56.2271 18.6753 55.2321 18.3958C53.7075 17.966 51.8726 17.5266 50.314 17.2547C44.7849 16.2867 36.4223 15.7922 31.3982 18.5859C29.8207 19.4627 29.0262 20.2405 27.9934 21.6288C26.7828 23.2567 26.5274 23.7075 26.291 25.8128C26.2475 26.1931 26.0735 26.3491 26.1245 27.0242C26.3383 29.8636 27.9026 31.288 30.6416 31.7064C29.0943 29.8997 28.4096 27.8401 28.75 25.4324C28.8711 24.5823 30.0098 22.6139 30.6416 22.0092C31.3661 21.315 33.4468 20.4307 34.4248 20.2976C34.7482 20.2538 35.4235 20.2557 35.7489 20.2976C36.5168 20.3965 38.1133 20.9974 38.7754 21.4386C39.0629 21.6288 40.0995 22.5284 40.2886 22.7699C40.3227 22.8136 40.8145 23.6371 40.8561 23.7208C41.1285 24.2723 41.5522 25.5921 41.6127 26.1931C41.7641 27.6955 41.2571 28.7624 41.0453 30.1869H49.4628C49.5876 30.1869 49.7314 29.8693 49.756 29.7057C49.8922 28.7795 48.273 25.6948 47.8549 24.6717C47.5523 23.9281 47.1872 23.1274 46.9092 22.3895C46.8411 22.207 46.6481 21.5109 46.72 21.4405L52.3947 21.4386C52.4023 21.6288 52.3872 21.819 52.3928 22.0092C52.4269 23.2016 52.2037 29.4604 52.5631 29.9206C52.7447 30.1526 52.9698 30.1622 53.2346 30.1964C54.2712 30.3333 57.7025 30.3352 58.7372 30.1964C59.2157 30.1317 59.4768 30.0385 59.5751 29.5174L59.5808 21.4405C60.2523 21.237 62.4957 21.4976 63.3242 21.5775C63.5323 21.5965 63.9693 21.8019 63.9296 21.4443C61.985 20.9099 60.1672 19.9819 58.2586 19.3467Z" fill="#404040"/>
<path d="M98.551 46.6355C98.4111 46.2875 99.2623 46.259 99.5933 45.9756C101.052 44.7375 100.577 41.6091 98.6437 41.2173C97.5617 40.9986 95.0024 41.2173 93.7256 41.2173C93.7048 41.2173 93.4419 41.4817 93.4419 41.5026V49.4901C93.4419 49.5605 93.8164 49.8895 93.9545 49.9313C95.621 50.4391 95.063 47.6929 95.1424 46.7325C95.5397 46.7725 96.0031 46.6679 96.3833 46.7249C97.6261 46.9056 98.5132 50.1139 99.9603 49.9713C102.064 49.764 98.7175 47.0463 98.551 46.6355ZM97.8871 45.2111H95.1443V42.7388C96.0447 42.8434 97.2194 42.5942 98.0763 42.7388C99.2585 42.9384 98.9407 45.2111 97.8871 45.2111Z" fill="#0D1416"/>
<path d="M56.7001 41.0768C51.1861 41.8737 51.8463 50.6713 58.1434 49.943C63.82 49.2887 62.9725 40.1716 56.7001 41.0768ZM59.004 47.9556C54.9958 50.6428 52.6748 43.319 56.8873 42.5906C59.946 42.0619 61.6938 46.1508 59.004 47.9556Z" fill="#0D1416"/>
<path d="M82.4256 41.0768C76.802 41.887 77.7629 50.7512 83.8745 49.9487C89.4528 49.2146 88.5259 40.1982 82.4256 41.0768ZM83.8481 48.3987C79.8436 49.2355 79.0889 43.1992 82.611 42.5906C86.4641 41.9269 87.0845 47.7217 83.8481 48.3987Z" fill="#0D1416"/>
</g>
<defs>
<clipPath id="clip0_54_509">
<rect width="150" height="50" fill="white"/>
</clipPath>
</defs>
</svg>
